<svg xmlns="http://www.w3.org/2000/svg" xmlns:xlink="http://www.w3.org/1999/xlink" width="500" zoomAndPan="magnify" viewBox="0 0 375 374.999991" height="500" preserveAspectRatio="xMidYMid meet" version="1.0"><defs><g/><clipPath id="id1"><path d="M 10.414062 14.683594 L 359.164062 14.683594 L 359.164062 363.433594 L 10.414062 363.433594 Z M 10.414062 14.683594 " clip-rule="nonzero"/></clipPath></defs><g clip-path="url(#id1)"><path fill="#38b6ff" d="M 320.125 53.722656 L 320.125 203.371094 C 320.121094 205.351562 320.070312 207.332031 319.972656 209.308594 C 319.871094 211.285156 319.722656 213.261719 319.527344 215.230469 C 319.332031 217.199219 319.089844 219.164062 318.796875 221.125 C 318.503906 223.082031 318.164062 225.03125 317.777344 226.972656 C 317.386719 228.914062 316.953125 230.84375 316.46875 232.765625 C 315.988281 234.6875 315.457031 236.59375 314.882812 238.488281 C 314.304688 240.382812 313.683594 242.261719 313.015625 244.125 C 312.347656 245.988281 311.632812 247.835938 310.875 249.664062 C 310.117188 251.492188 309.3125 253.300781 308.464844 255.089844 C 307.617188 256.882812 306.726562 258.648438 305.792969 260.394531 C 304.859375 262.140625 303.882812 263.863281 302.863281 265.558594 C 301.84375 267.257812 300.785156 268.929688 299.6875 270.574219 C 298.585938 272.222656 297.445312 273.839844 296.265625 275.429688 C 295.085938 277.019531 293.867188 278.582031 292.609375 280.109375 C 291.355469 281.640625 290.0625 283.140625 288.730469 284.605469 C 287.402344 286.074219 286.039062 287.507812 284.636719 288.90625 C 283.238281 290.308594 281.804688 291.671875 280.335938 293.003906 C 278.871094 294.332031 277.371094 295.625 275.839844 296.882812 C 274.308594 298.136719 272.75 299.355469 271.160156 300.535156 C 269.570312 301.714844 267.953125 302.855469 266.304688 303.957031 C 264.660156 305.054688 262.988281 306.117188 261.289062 307.132812 C 259.59375 308.152344 257.871094 309.128906 256.125 310.0625 C 254.378906 310.996094 252.609375 311.886719 250.820312 312.734375 C 249.03125 313.582031 247.222656 314.386719 245.394531 315.144531 C 243.566406 315.902344 241.71875 316.617188 239.855469 317.285156 C 237.992188 317.953125 236.113281 318.574219 234.21875 319.152344 C 232.324219 319.726562 230.414062 320.257812 228.496094 320.738281 C 226.574219 321.222656 224.644531 321.65625 222.703125 322.046875 C 220.761719 322.433594 218.8125 322.773438 216.851562 323.066406 C 214.894531 323.359375 212.929688 323.601562 210.960938 323.796875 C 208.988281 323.996094 207.015625 324.140625 205.039062 324.242188 C 203.0625 324.339844 201.082031 324.390625 199.101562 324.394531 L 49.453125 324.394531 L 49.453125 53.722656 L 320.125 53.722656 M 359.164062 14.683594 L 10.414062 14.683594 L 10.414062 363.433594 L 199.101562 363.433594 C 201.722656 363.433594 204.339844 363.367188 206.957031 363.242188 C 209.574219 363.113281 212.183594 362.917969 214.789062 362.664062 C 217.398438 362.40625 219.996094 362.085938 222.585938 361.699219 C 225.179688 361.316406 227.757812 360.867188 230.328125 360.359375 C 232.898438 359.847656 235.453125 359.273438 237.992188 358.636719 C 240.535156 358 243.058594 357.300781 245.566406 356.539062 C 248.070312 355.78125 250.558594 354.960938 253.023438 354.078125 C 255.492188 353.195312 257.933594 352.25 260.355469 351.25 C 262.773438 350.246094 265.167969 349.183594 267.535156 348.066406 C 269.90625 346.945312 272.242188 345.769531 274.554688 344.535156 C 276.863281 343.296875 279.144531 342.007812 281.390625 340.660156 C 283.636719 339.3125 285.847656 337.914062 288.027344 336.457031 C 290.203125 335.003906 292.347656 333.496094 294.449219 331.933594 C 296.554688 330.375 298.617188 328.761719 300.644531 327.101562 C 302.667969 325.4375 304.652344 323.730469 306.59375 321.96875 C 308.53125 320.210938 310.429688 318.40625 312.28125 316.550781 C 314.132812 314.699219 315.941406 312.804688 317.699219 310.863281 C 319.457031 308.921875 321.167969 306.9375 322.832031 304.914062 C 324.492188 302.890625 326.105469 300.824219 327.664062 298.71875 C 329.222656 296.617188 330.730469 294.476562 332.1875 292.296875 C 333.644531 290.121094 335.042969 287.90625 336.390625 285.660156 C 337.738281 283.414062 339.027344 281.132812 340.261719 278.824219 C 341.496094 276.515625 342.675781 274.175781 343.796875 271.808594 C 344.914062 269.4375 345.976562 267.046875 346.980469 264.625 C 347.980469 262.203125 348.921875 259.761719 349.804688 257.296875 C 350.6875 254.828125 351.511719 252.34375 352.269531 249.835938 C 353.03125 247.328125 353.730469 244.804688 354.367188 242.265625 C 355.003906 239.722656 355.578125 237.167969 356.085938 234.597656 C 356.597656 232.03125 357.046875 229.449219 357.429688 226.859375 C 357.816406 224.265625 358.136719 221.667969 358.390625 219.0625 C 358.648438 216.453125 358.839844 213.84375 358.96875 211.226562 C 359.097656 208.609375 359.164062 205.992188 359.164062 203.371094 Z M 359.164062 14.683594 " fill-opacity="1" fill-rule="nonzero"/></g><g fill="#38b6ff" fill-opacity="1"><g transform="translate(101.049225, 258.232417)"><g><path d="M 91.5625 39.828125 C 99.863281 35.773438 106.222656 31.304688 110.640625 26.421875 C 115.066406 21.535156 118.34375 16.554688 120.46875 11.484375 C 122.59375 6.410156 123.789062 1.335938 124.0625 -3.734375 C 124.34375 -8.804688 124.484375 -13.554688 124.484375 -17.984375 L 124.484375 -21.859375 C 120.242188 -14.109375 114.066406 -8.15625 105.953125 -4 C 97.835938 0.144531 88.429688 2.21875 77.734375 2.21875 C 66.109375 2.21875 56.144531 0.00390625 47.84375 -4.421875 C 39.550781 -8.847656 32.726562 -15.164062 27.375 -23.375 C 22.03125 -31.582031 18.113281 -41.398438 15.625 -52.828125 C 13.132812 -64.265625 11.890625 -76.992188 11.890625 -91.015625 C 11.890625 -105.398438 13.550781 -118.628906 16.875 -130.703125 C 20.195312 -142.785156 25.222656 -153.207031 31.953125 -161.96875 C 38.679688 -170.726562 47.160156 -177.550781 57.390625 -182.4375 C 67.628906 -187.320312 79.757812 -189.765625 93.78125 -189.765625 C 106.132812 -189.765625 116.503906 -187.734375 124.890625 -183.671875 C 133.285156 -179.617188 139.878906 -175.101562 144.671875 -170.125 L 128.625 -149.09375 C 123.832031 -153.894531 117.976562 -157.628906 111.0625 -160.296875 C 104.144531 -162.972656 97.09375 -164.3125 89.90625 -164.3125 C 81.976562 -164.3125 75.335938 -162.46875 69.984375 -158.78125 C 64.640625 -155.09375 60.304688 -150.066406 56.984375 -143.703125 C 53.660156 -137.335938 51.257812 -129.867188 49.78125 -121.296875 C 48.3125 -112.722656 47.578125 -103.550781 47.578125 -93.78125 C 47.578125 -83.269531 48.269531 -73.722656 49.65625 -65.140625 C 51.039062 -56.566406 53.160156 -49.191406 56.015625 -43.015625 C 58.867188 -36.835938 62.601562 -32.039062 67.21875 -28.625 C 71.832031 -25.21875 77.457031 -23.515625 84.09375 -23.515625 C 88.332031 -23.515625 92.664062 -24.484375 97.09375 -26.421875 C 101.519531 -28.359375 105.53125 -31.125 109.125 -34.71875 C 112.71875 -38.3125 115.617188 -42.691406 117.828125 -47.859375 C 120.046875 -53.023438 121.15625 -58.925781 121.15625 -65.5625 L 121.15625 -90.734375 L 153.53125 -90.734375 L 153.53125 -7.46875 C 153.53125 3.78125 152.003906 13.1875 148.953125 20.75 C 145.910156 28.3125 142.039062 34.625 137.34375 39.6875 C 132.644531 44.757812 127.390625 49 121.578125 52.40625 C 115.765625 55.820312 110 58.914062 104.28125 61.6875 Z M 91.5625 39.828125 "/></g></g></g></svg>