<svg xmlns="http://www.w3.org/2000/svg" xmlns:xlink="http://www.w3.org/1999/xlink" width="500" zoomAndPan="magnify" viewBox="0 0 375 89.999999" height="120" preserveAspectRatio="xMidYMid meet" version="1.0"><defs><g/></defs><g fill="#ffffff" fill-opacity="1"><g transform="translate(-3.233264, 58.797353)"><g><path d="M 23.230469 -11.15625 C 23.128906 -10.648438 23.027344 -10.191406 22.875 -9.730469 C 22.722656 -9.273438 22.46875 -8.863281 22.265625 -8.457031 C 22.058594 -8 21.804688 -7.589844 21.550781 -7.234375 C 21.195312 -6.878906 20.9375 -6.417969 20.582031 -6.164062 C 20.175781 -5.859375 19.769531 -5.605469 19.308594 -5.453125 C 18.902344 -5.246094 18.390625 -5.144531 17.933594 -5.042969 C 17.476562 -4.941406 16.964844 -4.839844 16.507812 -4.839844 C 15.996094 -4.839844 15.539062 -4.941406 15.082031 -4.992188 C 14.621094 -5.09375 14.164062 -5.195312 13.703125 -5.402344 C 13.246094 -5.554688 12.839844 -5.808594 12.429688 -6.0625 C 12.074219 -6.367188 11.769531 -6.726562 11.464844 -7.082031 C 11.15625 -7.4375 10.75 -7.742188 10.496094 -8.152344 C 10.292969 -8.558594 10.085938 -8.964844 9.882812 -9.375 C 9.679688 -9.832031 9.628906 -10.292969 9.476562 -10.699219 C 9.273438 -11.15625 9.070312 -11.515625 8.914062 -11.972656 C 8.8125 -12.429688 8.609375 -12.839844 8.507812 -13.296875 C 8.40625 -13.753906 8.40625 -14.214844 8.355469 -14.671875 C 8.304688 -15.132812 8.152344 -15.589844 8.152344 -16.046875 C 8.152344 -16.507812 8.101562 -16.964844 8.152344 -17.425781 C 8.152344 -17.882812 8.304688 -18.339844 8.355469 -18.800781 C 8.457031 -19.207031 8.507812 -19.664062 8.660156 -20.125 C 8.761719 -20.582031 8.863281 -21.042969 9.019531 -21.449219 C 9.171875 -21.90625 9.425781 -22.265625 9.628906 -22.722656 C 9.832031 -23.128906 9.882812 -23.589844 10.136719 -23.996094 C 10.394531 -24.351562 10.699219 -24.710938 11.003906 -25.015625 C 11.308594 -25.371094 11.71875 -25.625 12.074219 -25.882812 C 12.429688 -26.1875 12.738281 -26.542969 13.144531 -26.695312 C 13.550781 -26.898438 14.011719 -27.054688 14.46875 -27.15625 C 14.875 -27.257812 15.335938 -27.308594 15.792969 -27.359375 C 16.253906 -27.359375 16.710938 -27.410156 17.167969 -27.308594 C 17.628906 -27.257812 18.085938 -27.207031 18.492188 -27.054688 C 18.953125 -26.898438 19.308594 -26.59375 19.714844 -26.390625 C 20.125 -26.1875 20.582031 -26.085938 20.992188 -25.832031 C 21.398438 -25.574219 21.703125 -25.21875 22.058594 -24.914062 C 22.46875 -24.609375 22.875 -24.402344 23.28125 -24.199219 C 23.742188 -23.894531 24.097656 -23.539062 24.503906 -23.488281 C 24.964844 -23.386719 25.371094 -23.589844 25.832031 -23.84375 C 26.136719 -24.046875 26.542969 -24.300781 26.898438 -24.761719 C 27.207031 -25.167969 27.410156 -25.574219 27.511719 -25.933594 C 27.714844 -26.390625 27.765625 -26.796875 27.664062 -27.207031 C 27.5625 -27.613281 27.308594 -27.96875 26.953125 -28.328125 C 26.644531 -28.683594 26.339844 -28.988281 26.035156 -29.292969 C 25.675781 -29.601562 25.21875 -29.753906 24.863281 -30.007812 C 24.503906 -30.261719 24.199219 -30.621094 23.84375 -30.824219 C 23.4375 -31.078125 23.027344 -31.179688 22.621094 -31.382812 C 22.214844 -31.585938 21.855469 -31.84375 21.449219 -31.996094 C 20.992188 -32.148438 20.582031 -32.25 20.125 -32.351562 C 19.714844 -32.453125 19.257812 -32.503906 18.851562 -32.554688 C 18.390625 -32.605469 17.933594 -32.65625 17.527344 -32.707031 C 17.066406 -32.707031 16.609375 -32.65625 16.203125 -32.65625 C 15.742188 -32.65625 15.285156 -32.757812 14.824219 -32.707031 C 14.417969 -32.65625 13.960938 -32.453125 13.550781 -32.351562 C 13.09375 -32.25 12.636719 -32.199219 12.175781 -32.046875 C 11.769531 -31.945312 11.257812 -31.945312 10.851562 -31.792969 C 10.394531 -31.636719 10.035156 -31.28125 9.679688 -31.078125 C 9.273438 -30.875 8.863281 -30.671875 8.457031 -30.414062 C 8.101562 -30.160156 7.691406 -29.90625 7.386719 -29.601562 C 7.03125 -29.292969 6.777344 -28.9375 6.46875 -28.582031 C 6.164062 -28.226562 5.960938 -27.816406 5.707031 -27.410156 C 5.453125 -27.054688 5.144531 -26.695312 4.890625 -26.289062 C 4.6875 -25.882812 4.535156 -25.472656 4.332031 -25.015625 C 4.175781 -24.609375 4.175781 -24.148438 4.023438 -23.691406 C 3.921875 -23.28125 3.820312 -22.824219 3.71875 -22.417969 C 3.617188 -21.957031 3.414062 -21.550781 3.3125 -21.09375 C 3.210938 -20.632812 3.160156 -20.226562 3.109375 -19.769531 C 3.007812 -19.308594 3.007812 -18.851562 2.953125 -18.441406 C 2.902344 -17.984375 2.902344 -17.527344 2.902344 -17.066406 C 2.851562 -16.609375 2.800781 -16.148438 2.800781 -15.742188 C 2.800781 -15.285156 2.699219 -14.824219 2.75 -14.367188 C 2.75 -13.910156 2.902344 -13.449219 2.953125 -13.042969 C 3.007812 -12.585938 3.109375 -12.125 3.210938 -11.71875 C 3.261719 -11.257812 3.363281 -10.800781 3.464844 -10.394531 C 3.566406 -9.933594 3.71875 -9.527344 3.871094 -9.070312 C 3.972656 -8.660156 3.972656 -8.152344 4.125 -7.742188 C 4.28125 -7.335938 4.585938 -6.980469 4.789062 -6.519531 C 4.992188 -6.113281 5.09375 -5.65625 5.347656 -5.296875 C 5.554688 -4.890625 5.859375 -4.535156 6.113281 -4.175781 C 6.367188 -3.769531 6.625 -3.414062 6.980469 -3.058594 C 7.285156 -2.75 7.640625 -2.445312 8 -2.191406 C 8.355469 -1.886719 8.660156 -1.578125 9.070312 -1.324219 C 9.425781 -1.070312 9.78125 -0.765625 10.191406 -0.558594 C 10.597656 -0.355469 11.054688 -0.203125 11.515625 -0.0507812 C 11.921875 0.101562 12.328125 0.253906 12.789062 0.355469 C 13.246094 0.457031 13.703125 0.558594 14.164062 0.613281 C 14.570312 0.664062 15.03125 0.613281 15.488281 0.664062 C 15.945312 0.664062 16.40625 0.714844 16.8125 0.664062 C 17.269531 0.664062 17.730469 0.457031 18.136719 0.40625 C 18.597656 0.304688 19.054688 0.355469 19.511719 0.253906 C 19.921875 0.101562 20.378906 0 20.785156 -0.152344 C 21.195312 -0.304688 21.550781 -0.613281 21.957031 -0.816406 C 22.367188 -1.019531 22.824219 -1.121094 23.179688 -1.375 C 23.589844 -1.578125 23.945312 -1.835938 24.300781 -2.089844 C 24.660156 -2.394531 24.914062 -2.75 25.21875 -3.058594 C 25.574219 -3.363281 25.933594 -3.617188 26.238281 -3.972656 C 26.542969 -4.332031 26.847656 -4.636719 27.105469 -4.992188 C 27.359375 -5.347656 27.460938 -5.808594 27.714844 -6.214844 C 27.917969 -6.625 28.277344 -6.929688 28.480469 -7.335938 C 28.632812 -7.742188 28.632812 -8.203125 28.785156 -8.660156 C 28.9375 -9.070312 29.089844 -9.476562 29.191406 -9.933594 C 29.292969 -10.34375 29.347656 -10.800781 29.398438 -11.257812 C 29.5 -11.667969 29.601562 -12.125 29.652344 -12.585938 C 29.652344 -12.992188 29.652344 -13.449219 29.652344 -13.910156 C 29.652344 -14.367188 29.703125 -14.824219 29.601562 -15.234375 C 29.5 -15.691406 29.398438 -16.097656 29.191406 -16.507812 C 28.9375 -16.863281 28.582031 -17.117188 28.226562 -17.375 C 27.867188 -17.578125 27.460938 -17.78125 27.003906 -17.832031 C 26.542969 -17.832031 26.085938 -17.78125 25.625 -17.832031 C 25.21875 -17.832031 24.761719 -17.832031 24.300781 -17.832031 C 23.894531 -17.832031 23.4375 -17.882812 23.027344 -17.882812 C 22.570312 -17.882812 22.109375 -17.882812 21.703125 -17.882812 C 21.246094 -17.933594 20.785156 -18.035156 20.378906 -18.035156 C 19.921875 -18.035156 19.460938 -18.085938 19.003906 -18.085938 C 18.597656 -18.085938 18.136719 -17.984375 17.679688 -17.984375 C 17.269531 -17.984375 16.8125 -17.882812 16.355469 -17.882812 C 15.945312 -17.832031 15.488281 -17.933594 15.03125 -17.882812 C 14.671875 -17.882812 14.46875 -17.425781 14.316406 -16.914062 C 14.214844 -16.457031 13.960938 -15.996094 13.960938 -15.589844 C 13.910156 -15.183594 13.910156 -14.671875 13.960938 -14.265625 C 14.0625 -13.808594 14.367188 -13.5 14.722656 -13.195312 C 15.082031 -12.941406 15.488281 -12.789062 15.996094 -12.738281 C 16.457031 -12.6875 16.964844 -12.738281 17.425781 -12.738281 C 17.984375 -12.6875 18.492188 -12.53125 18.953125 -12.53125 C 19.460938 -12.480469 19.972656 -12.480469 20.480469 -12.480469 C 20.9375 -12.429688 21.449219 -12.480469 22.007812 -12.480469 C 22.46875 -12.480469 22.976562 -12.585938 23.589844 -12.585938 C 23.488281 -12.074219 23.332031 -11.566406 23.230469 -11.15625 Z M 23.230469 -11.15625 "/></g></g></g><g fill="#ffffff" fill-opacity="1"><g transform="translate(28.961699, 58.797353)"><g><path d="M 11.15625 -26.390625 C 11.667969 -26.390625 12.125 -26.441406 12.636719 -26.441406 C 13.09375 -26.441406 13.550781 -26.339844 14.0625 -26.339844 C 14.519531 -26.339844 14.980469 -26.390625 15.488281 -26.390625 C 15.945312 -26.390625 16.457031 -26.339844 16.914062 -26.339844 C 17.375 -26.339844 17.882812 -26.339844 18.339844 -26.339844 C 18.800781 -26.339844 19.308594 -26.441406 19.769531 -26.441406 C 20.226562 -26.441406 20.734375 -26.441406 21.195312 -26.441406 C 21.804688 -26.441406 22.316406 -26.390625 22.722656 -26.492188 C 23.28125 -26.59375 23.589844 -26.796875 23.84375 -27.308594 C 24.046875 -27.664062 24.199219 -28.121094 24.25 -28.785156 C 24.25 -29.292969 24.300781 -29.804688 24.300781 -30.210938 C 24.300781 -30.773438 24.25 -31.230469 23.945312 -31.585938 C 23.640625 -31.792969 23.28125 -32.097656 22.621094 -32.199219 C 22.214844 -32.25 21.703125 -32.148438 21.144531 -32.148438 C 20.683594 -32.148438 20.226562 -32.199219 19.820312 -32.148438 C 19.359375 -32.148438 18.902344 -32.300781 18.492188 -32.25 C 18.035156 -32.25 17.578125 -32.148438 17.117188 -32.148438 C 16.710938 -32.097656 16.253906 -32.046875 15.792969 -31.996094 C 15.386719 -31.996094 14.925781 -32.046875 14.46875 -32.046875 C 14.011719 -31.996094 13.5 -31.894531 13.042969 -31.894531 C 12.53125 -31.894531 12.023438 -31.894531 11.566406 -31.945312 C 11.054688 -31.945312 10.597656 -32.046875 10.085938 -32.097656 C 9.628906 -32.148438 9.121094 -32.148438 8.660156 -32.199219 C 8.152344 -32.199219 7.640625 -32.199219 7.183594 -32.199219 C 6.675781 -32.199219 6.214844 -32.351562 5.707031 -32.351562 C 5.195312 -32.351562 4.789062 -32.199219 4.28125 -32.148438 C 4.28125 -31.742188 4.230469 -31.332031 4.230469 -30.875 C 4.230469 -30.414062 4.125 -29.957031 4.074219 -29.5 C 4.074219 -29.039062 4.175781 -28.582031 4.175781 -28.175781 C 4.175781 -27.714844 4.125 -27.257812 4.125 -26.796875 C 4.074219 -26.339844 4.074219 -25.882812 4.074219 -25.421875 C 4.074219 -24.964844 4.125 -24.503906 4.125 -24.097656 C 4.125 -23.640625 4.125 -23.179688 4.125 -22.722656 C 4.125 -22.265625 3.972656 -21.804688 3.972656 -21.347656 C 3.972656 -20.9375 4.074219 -20.480469 4.074219 -20.023438 C 4.074219 -19.5625 4.023438 -19.105469 4.023438 -18.648438 C 4.023438 -18.238281 4.125 -17.78125 4.074219 -17.320312 C 4.074219 -16.863281 3.921875 -16.40625 3.871094 -15.945312 C 3.871094 -15.539062 4.023438 -15.082031 3.972656 -14.621094 C 3.972656 -14.164062 3.921875 -13.703125 3.871094 -13.296875 C 3.871094 -12.839844 3.921875 -12.378906 3.921875 -11.921875 C 3.921875 -11.464844 3.921875 -11.003906 3.921875 -10.597656 C 3.921875 -10.136719 3.921875 -9.679688 3.921875 -9.222656 C 3.921875 -8.8125 3.871094 -8.355469 3.871094 -7.898438 C 3.820312 -7.4375 4.023438 -6.980469 4.023438 -6.519531 C 4.023438 -6.113281 3.871094 -5.65625 3.871094 -5.195312 C 3.871094 -4.738281 3.972656 -4.28125 3.972656 -3.871094 C 3.972656 -3.414062 3.871094 -2.953125 3.871094 -2.496094 C 3.871094 -2.140625 4.230469 -1.578125 4.6875 -1.121094 C 5.144531 -0.664062 5.707031 -0.355469 6.113281 -0.304688 C 6.519531 -0.304688 6.980469 -0.253906 7.4375 -0.253906 C 7.847656 -0.203125 8.304688 -0.253906 8.761719 -0.203125 C 9.171875 -0.203125 9.628906 -0.0507812 10.085938 0 C 10.496094 0 10.953125 -0.152344 11.414062 -0.152344 C 11.871094 -0.152344 12.277344 -0.101562 12.738281 -0.101562 C 13.195312 -0.101562 13.652344 0.0507812 14.0625 0.101562 C 14.519531 0.101562 14.980469 -0.0507812 15.386719 -0.0507812 C 15.84375 0 16.304688 0.0507812 16.761719 0.0507812 C 17.167969 0.0507812 17.628906 0.101562 18.085938 0.101562 C 18.492188 0.101562 18.953125 0.0507812 19.410156 0.0507812 C 19.871094 0.0507812 20.277344 -0.0507812 20.734375 -0.0507812 C 21.195312 -0.0507812 21.601562 0.0507812 22.058594 0.0507812 C 22.570312 0.0507812 22.976562 -0.101562 23.230469 -0.355469 C 23.589844 -0.613281 23.691406 -0.96875 23.792969 -1.425781 C 23.84375 -1.78125 23.792969 -2.191406 23.640625 -2.597656 C 23.539062 -3.007812 23.4375 -3.414062 23.230469 -3.769531 C 22.976562 -4.175781 22.671875 -4.535156 22.417969 -4.839844 C 22.109375 -5.144531 21.753906 -5.347656 21.195312 -5.402344 C 20.734375 -5.453125 20.226562 -5.402344 19.714844 -5.402344 C 19.207031 -5.402344 18.699219 -5.503906 18.1875 -5.503906 C 17.679688 -5.503906 17.167969 -5.554688 16.660156 -5.554688 C 16.148438 -5.554688 15.691406 -5.453125 15.183594 -5.453125 C 14.671875 -5.453125 14.164062 -5.347656 13.652344 -5.402344 C 13.144531 -5.402344 12.6875 -5.402344 12.175781 -5.402344 C 11.667969 -5.402344 11.15625 -5.347656 10.699219 -5.347656 C 9.832031 -5.347656 9.882812 -5.042969 9.324219 -5.503906 C 8.8125 -5.859375 9.121094 -5.910156 9.070312 -6.675781 C 9.070312 -7.03125 9.121094 -7.488281 9.121094 -7.949219 C 9.121094 -8.304688 9.070312 -8.761719 9.070312 -9.171875 C 9.070312 -9.578125 9.070312 -10.035156 9.121094 -10.394531 C 9.121094 -10.851562 9.070312 -11.308594 9.121094 -11.769531 C 9.171875 -12.175781 9.222656 -12.585938 9.375 -13.09375 C 9.78125 -13.09375 10.242188 -13.042969 10.699219 -13.042969 C 11.15625 -12.992188 11.617188 -13.042969 12.023438 -13.042969 C 12.480469 -13.042969 12.941406 -12.992188 13.398438 -12.992188 C 13.859375 -12.992188 14.265625 -12.992188 14.722656 -12.992188 C 15.183594 -12.992188 15.589844 -13.042969 16.046875 -13.09375 C 16.507812 -13.09375 16.914062 -13.042969 17.375 -13.042969 C 17.882812 -13.042969 18.289062 -13.195312 18.648438 -13.195312 C 19.15625 -13.246094 19.613281 -13.195312 19.921875 -13.347656 C 20.378906 -13.5 20.683594 -13.808594 20.835938 -14.265625 C 20.9375 -14.570312 20.785156 -15.03125 20.734375 -15.539062 C 20.734375 -15.894531 20.785156 -16.355469 20.683594 -16.8125 C 20.632812 -17.21875 20.53125 -17.679688 20.429688 -18.136719 C 19.972656 -18.1875 19.410156 -18.085938 18.953125 -18.085938 C 18.441406 -18.136719 17.984375 -18.238281 17.476562 -18.238281 C 16.964844 -18.238281 16.507812 -18.339844 15.996094 -18.339844 C 15.488281 -18.390625 15.03125 -18.238281 14.519531 -18.289062 C 14.011719 -18.339844 13.550781 -18.542969 13.042969 -18.597656 C 12.6875 -18.597656 12.226562 -18.492188 11.820312 -18.492188 C 11.414062 -18.492188 11.003906 -18.542969 10.597656 -18.542969 C 9.882812 -18.542969 9.730469 -18.035156 9.324219 -18.492188 C 8.863281 -19.003906 9.375 -19.15625 9.324219 -19.921875 C 9.324219 -20.328125 9.222656 -20.835938 9.222656 -21.296875 C 9.222656 -21.753906 9.324219 -22.265625 9.324219 -22.671875 C 9.324219 -23.078125 9.375 -23.4375 9.425781 -23.894531 C 9.476562 -24.25 9.425781 -24.660156 9.476562 -25.117188 C 9.527344 -25.523438 9.679688 -25.882812 9.730469 -26.339844 C 10.242188 -26.339844 10.699219 -26.390625 11.15625 -26.390625 Z M 11.15625 -26.390625 "/></g></g></g><g fill="#ffffff" fill-opacity="1"><g transform="translate(55.553109, 58.797353)"><g><path d="M 11.15625 -26.390625 C 11.667969 -26.390625 12.125 -26.441406 12.636719 -26.441406 C 13.09375 -26.441406 13.550781 -26.339844 14.0625 -26.339844 C 14.519531 -26.339844 14.980469 -26.390625 15.488281 -26.390625 C 15.945312 -26.390625 16.457031 -26.339844 16.914062 -26.339844 C 17.375 -26.339844 17.882812 -26.339844 18.339844 -26.339844 C 18.800781 -26.339844 19.308594 -26.441406 19.769531 -26.441406 C 20.226562 -26.441406 20.734375 -26.441406 21.195312 -26.441406 C 21.804688 -26.441406 22.316406 -26.390625 22.722656 -26.492188 C 23.28125 -26.59375 23.589844 -26.796875 23.84375 -27.308594 C 24.046875 -27.664062 24.199219 -28.121094 24.25 -28.785156 C 24.25 -29.292969 24.300781 -29.804688 24.300781 -30.210938 C 24.300781 -30.773438 24.25 -31.230469 23.945312 -31.585938 C 23.640625 -31.792969 23.28125 -32.097656 22.621094 -32.199219 C 22.214844 -32.25 21.703125 -32.148438 21.144531 -32.148438 C 20.683594 -32.148438 20.226562 -32.199219 19.820312 -32.148438 C 19.359375 -32.148438 18.902344 -32.300781 18.492188 -32.25 C 18.035156 -32.25 17.578125 -32.148438 17.117188 -32.148438 C 16.710938 -32.097656 16.253906 -32.046875 15.792969 -31.996094 C 15.386719 -31.996094 14.925781 -32.046875 14.46875 -32.046875 C 14.011719 -31.996094 13.5 -31.894531 13.042969 -31.894531 C 12.53125 -31.894531 12.023438 -31.894531 11.566406 -31.945312 C 11.054688 -31.945312 10.597656 -32.046875 10.085938 -32.097656 C 9.628906 -32.148438 9.121094 -32.148438 8.660156 -32.199219 C 8.152344 -32.199219 7.640625 -32.199219 7.183594 -32.199219 C 6.675781 -32.199219 6.214844 -32.351562 5.707031 -32.351562 C 5.195312 -32.351562 4.789062 -32.199219 4.28125 -32.148438 C 4.28125 -31.742188 4.230469 -31.332031 4.230469 -30.875 C 4.230469 -30.414062 4.125 -29.957031 4.074219 -29.5 C 4.074219 -29.039062 4.175781 -28.582031 4.175781 -28.175781 C 4.175781 -27.714844 4.125 -27.257812 4.125 -26.796875 C 4.074219 -26.339844 4.074219 -25.882812 4.074219 -25.421875 C 4.074219 -24.964844 4.125 -24.503906 4.125 -24.097656 C 4.125 -23.640625 4.125 -23.179688 4.125 -22.722656 C 4.125 -22.265625 3.972656 -21.804688 3.972656 -21.347656 C 3.972656 -20.9375 4.074219 -20.480469 4.074219 -20.023438 C 4.074219 -19.5625 4.023438 -19.105469 4.023438 -18.648438 C 4.023438 -18.238281 4.125 -17.78125 4.074219 -17.320312 C 4.074219 -16.863281 3.921875 -16.40625 3.871094 -15.945312 C 3.871094 -15.539062 4.023438 -15.082031 3.972656 -14.621094 C 3.972656 -14.164062 3.921875 -13.703125 3.871094 -13.296875 C 3.871094 -12.839844 3.921875 -12.378906 3.921875 -11.921875 C 3.921875 -11.464844 3.921875 -11.003906 3.921875 -10.597656 C 3.921875 -10.136719 3.921875 -9.679688 3.921875 -9.222656 C 3.921875 -8.8125 3.871094 -8.355469 3.871094 -7.898438 C 3.820312 -7.4375 4.023438 -6.980469 4.023438 -6.519531 C 4.023438 -6.113281 3.871094 -5.65625 3.871094 -5.195312 C 3.871094 -4.738281 3.972656 -4.28125 3.972656 -3.871094 C 3.972656 -3.414062 3.871094 -2.953125 3.871094 -2.496094 C 3.871094 -2.140625 4.230469 -1.578125 4.6875 -1.121094 C 5.144531 -0.664062 5.707031 -0.355469 6.113281 -0.304688 C 6.519531 -0.304688 6.980469 -0.253906 7.4375 -0.253906 C 7.847656 -0.203125 8.304688 -0.253906 8.761719 -0.203125 C 9.171875 -0.203125 9.628906 -0.0507812 10.085938 0 C 10.496094 0 10.953125 -0.152344 11.414062 -0.152344 C 11.871094 -0.152344 12.277344 -0.101562 12.738281 -0.101562 C 13.195312 -0.101562 13.652344 0.0507812 14.0625 0.101562 C 14.519531 0.101562 14.980469 -0.0507812 15.386719 -0.0507812 C 15.84375 0 16.304688 0.0507812 16.761719 0.0507812 C 17.167969 0.0507812 17.628906 0.101562 18.085938 0.101562 C 18.492188 0.101562 18.953125 0.0507812 19.410156 0.0507812 C 19.871094 0.0507812 20.277344 -0.0507812 20.734375 -0.0507812 C 21.195312 -0.0507812 21.601562 0.0507812 22.058594 0.0507812 C 22.570312 0.0507812 22.976562 -0.101562 23.230469 -0.355469 C 23.589844 -0.613281 23.691406 -0.96875 23.792969 -1.425781 C 23.84375 -1.78125 23.792969 -2.191406 23.640625 -2.597656 C 23.539062 -3.007812 23.4375 -3.414062 23.230469 -3.769531 C 22.976562 -4.175781 22.671875 -4.535156 22.417969 -4.839844 C 22.109375 -5.144531 21.753906 -5.347656 21.195312 -5.402344 C 20.734375 -5.453125 20.226562 -5.402344 19.714844 -5.402344 C 19.207031 -5.402344 18.699219 -5.503906 18.1875 -5.503906 C 17.679688 -5.503906 17.167969 -5.554688 16.660156 -5.554688 C 16.148438 -5.554688 15.691406 -5.453125 15.183594 -5.453125 C 14.671875 -5.453125 14.164062 -5.347656 13.652344 -5.402344 C 13.144531 -5.402344 12.6875 -5.402344 12.175781 -5.402344 C 11.667969 -5.402344 11.15625 -5.347656 10.699219 -5.347656 C 9.832031 -5.347656 9.882812 -5.042969 9.324219 -5.503906 C 8.8125 -5.859375 9.121094 -5.910156 9.070312 -6.675781 C 9.070312 -7.03125 9.121094 -7.488281 9.121094 -7.949219 C 9.121094 -8.304688 9.070312 -8.761719 9.070312 -9.171875 C 9.070312 -9.578125 9.070312 -10.035156 9.121094 -10.394531 C 9.121094 -10.851562 9.070312 -11.308594 9.121094 -11.769531 C 9.171875 -12.175781 9.222656 -12.585938 9.375 -13.09375 C 9.78125 -13.09375 10.242188 -13.042969 10.699219 -13.042969 C 11.15625 -12.992188 11.617188 -13.042969 12.023438 -13.042969 C 12.480469 -13.042969 12.941406 -12.992188 13.398438 -12.992188 C 13.859375 -12.992188 14.265625 -12.992188 14.722656 -12.992188 C 15.183594 -12.992188 15.589844 -13.042969 16.046875 -13.09375 C 16.507812 -13.09375 16.914062 -13.042969 17.375 -13.042969 C 17.882812 -13.042969 18.289062 -13.195312 18.648438 -13.195312 C 19.15625 -13.246094 19.613281 -13.195312 19.921875 -13.347656 C 20.378906 -13.5 20.683594 -13.808594 20.835938 -14.265625 C 20.9375 -14.570312 20.785156 -15.03125 20.734375 -15.539062 C 20.734375 -15.894531 20.785156 -16.355469 20.683594 -16.8125 C 20.632812 -17.21875 20.53125 -17.679688 20.429688 -18.136719 C 19.972656 -18.1875 19.410156 -18.085938 18.953125 -18.085938 C 18.441406 -18.136719 17.984375 -18.238281 17.476562 -18.238281 C 16.964844 -18.238281 16.507812 -18.339844 15.996094 -18.339844 C 15.488281 -18.390625 15.03125 -18.238281 14.519531 -18.289062 C 14.011719 -18.339844 13.550781 -18.542969 13.042969 -18.597656 C 12.6875 -18.597656 12.226562 -18.492188 11.820312 -18.492188 C 11.414062 -18.492188 11.003906 -18.542969 10.597656 -18.542969 C 9.882812 -18.542969 9.730469 -18.035156 9.324219 -18.492188 C 8.863281 -19.003906 9.375 -19.15625 9.324219 -19.921875 C 9.324219 -20.328125 9.222656 -20.835938 9.222656 -21.296875 C 9.222656 -21.753906 9.324219 -22.265625 9.324219 -22.671875 C 9.324219 -23.078125 9.375 -23.4375 9.425781 -23.894531 C 9.476562 -24.25 9.425781 -24.660156 9.476562 -25.117188 C 9.527344 -25.523438 9.679688 -25.882812 9.730469 -26.339844 C 10.242188 -26.339844 10.699219 -26.390625 11.15625 -26.390625 Z M 11.15625 -26.390625 "/></g></g></g><g fill="#ffffff" fill-opacity="1"><g transform="translate(82.144519, 58.797353)"><g><path d="M 9.476562 -22.109375 C 9.476562 -22.570312 9.578125 -23.027344 9.527344 -23.539062 C 9.527344 -24.046875 9.425781 -24.503906 9.425781 -24.964844 C 9.425781 -25.472656 9.476562 -25.984375 9.476562 -26.390625 C 9.476562 -26.746094 9.324219 -27.207031 9.273438 -27.714844 C 9.273438 -28.121094 9.222656 -28.582031 9.222656 -29.039062 C 9.171875 -29.550781 9.273438 -30.007812 9.273438 -30.363281 C 9.222656 -30.925781 9.070312 -31.28125 8.863281 -31.585938 C 8.660156 -31.945312 8.304688 -32.046875 7.796875 -32.097656 C 7.4375 -32.148438 7.03125 -32.199219 6.519531 -32.148438 C 6.011719 -32.148438 5.605469 -32.148438 5.246094 -32.097656 C 4.738281 -31.996094 4.433594 -31.742188 4.230469 -31.382812 C 4.074219 -31.078125 3.871094 -30.722656 3.921875 -30.160156 C 3.921875 -29.855469 3.972656 -29.347656 3.972656 -28.835938 C 3.972656 -28.328125 3.921875 -27.816406 3.921875 -27.511719 C 3.921875 -27.054688 3.921875 -26.59375 3.921875 -26.136719 C 3.921875 -25.675781 4.023438 -25.21875 4.023438 -24.761719 C 4.023438 -24.300781 4.023438 -23.84375 4.023438 -23.386719 C 4.023438 -22.875 3.972656 -22.417969 3.972656 -21.957031 C 3.972656 -21.5 4.074219 -21.042969 4.074219 -20.582031 C 4.074219 -20.125 4.023438 -19.664062 4.023438 -19.207031 C 4.023438 -18.75 4.023438 -18.238281 4.023438 -17.78125 C 4.023438 -17.320312 3.972656 -16.863281 3.972656 -16.40625 C 3.972656 -15.945312 3.972656 -15.488281 3.972656 -15.03125 C 3.972656 -14.570312 3.972656 -14.113281 3.972656 -13.652344 C 3.972656 -13.144531 4.023438 -12.6875 4.023438 -12.226562 C 4.023438 -11.769531 3.921875 -11.308594 3.972656 -10.851562 C 3.972656 -10.394531 4.125 -9.933594 4.125 -9.476562 C 4.125 -9.019531 4.074219 -8.558594 4.074219 -8.050781 C 4.074219 -7.589844 4.125 -7.132812 4.125 -6.675781 C 4.125 -6.214844 4.023438 -5.757812 4.023438 -5.195312 C 4.023438 -4.738281 4.074219 -4.230469 4.074219 -3.71875 C 4.074219 -3.261719 4.074219 -2.75 4.023438 -2.242188 C 4.023438 -1.730469 3.972656 -1.324219 4.074219 -1.019531 C 4.230469 -0.613281 4.535156 -0.40625 4.941406 -0.253906 C 5.246094 -0.101562 5.65625 -0.0507812 6.113281 0 C 6.46875 0 6.878906 0.101562 7.335938 0.101562 C 7.949219 0.101562 8.457031 -0.0507812 8.761719 -0.253906 C 9.222656 -0.507812 9.425781 -0.96875 9.578125 -1.425781 C 9.679688 -1.886719 9.832031 -2.34375 9.832031 -2.902344 C 9.882812 -3.3125 9.933594 -3.769531 9.933594 -4.230469 C 9.933594 -4.6875 9.933594 -5.09375 9.933594 -5.554688 C 9.933594 -6.011719 9.832031 -6.46875 9.832031 -6.878906 C 9.78125 -7.335938 9.832031 -7.796875 9.832031 -8.253906 C 9.78125 -8.710938 9.832031 -9.171875 9.832031 -9.578125 C 9.882812 -10.035156 9.882812 -10.496094 9.984375 -10.902344 C 10.136719 -11.359375 10.292969 -11.769531 10.496094 -12.125 C 10.699219 -12.53125 10.902344 -12.941406 11.207031 -13.296875 C 11.515625 -13.601562 11.871094 -13.859375 12.277344 -14.164062 C 12.585938 -14.417969 12.941406 -14.773438 13.347656 -15.03125 C 13.550781 -14.671875 13.808594 -14.113281 14.0625 -13.601562 C 14.316406 -13.144531 14.570312 -12.6875 14.773438 -12.226562 C 15.03125 -11.667969 15.285156 -11.207031 15.488281 -10.851562 C 15.691406 -10.445312 15.894531 -10.035156 16.097656 -9.628906 C 16.304688 -9.222656 16.558594 -8.8125 16.761719 -8.40625 C 16.964844 -8 17.269531 -7.640625 17.476562 -7.234375 C 17.679688 -6.828125 17.882812 -6.417969 18.085938 -6.011719 C 18.289062 -5.605469 18.441406 -5.144531 18.648438 -4.789062 C 18.851562 -4.332031 18.953125 -3.871094 19.15625 -3.515625 C 19.359375 -3.058594 19.5625 -2.648438 19.714844 -2.292969 C 19.972656 -1.835938 20.175781 -1.375 20.328125 -1.070312 C 20.632812 -0.558594 20.992188 -0.304688 21.296875 -0.101562 C 21.703125 0.152344 22.109375 0.253906 22.621094 0.203125 C 23.027344 0.152344 23.4375 0.101562 23.945312 0.101562 C 24.453125 0.101562 24.914062 0.101562 25.320312 0.101562 C 25.933594 0.101562 26.339844 -0.101562 26.59375 -0.355469 C 26.796875 -0.613281 26.796875 -0.96875 26.59375 -1.628906 C 26.441406 -1.988281 26.339844 -2.394531 26.035156 -2.902344 C 25.78125 -3.414062 25.625 -3.871094 25.421875 -4.230469 C 25.167969 -4.738281 24.8125 -5.09375 24.609375 -5.453125 C 24.300781 -5.960938 24.25 -6.46875 24.046875 -6.777344 C 23.792969 -7.234375 23.488281 -7.539062 23.230469 -8 C 23.027344 -8.40625 22.824219 -8.8125 22.621094 -9.222656 C 22.367188 -9.628906 22.265625 -10.085938 22.058594 -10.496094 C 21.855469 -10.902344 21.550781 -11.257812 21.347656 -11.667969 C 21.09375 -12.074219 20.835938 -12.429688 20.582031 -12.839844 C 20.378906 -13.246094 20.125 -13.652344 19.871094 -14.0625 C 19.664062 -14.46875 19.511719 -14.925781 19.308594 -15.335938 C 19.105469 -15.742188 18.902344 -16.148438 18.699219 -16.558594 C 18.441406 -16.964844 18.136719 -17.375 17.933594 -17.730469 C 17.578125 -18.441406 17.375 -18.289062 17.320312 -19.003906 C 17.269531 -19.714844 17.578125 -19.5625 17.984375 -20.226562 C 18.238281 -20.582031 18.441406 -21.09375 18.75 -21.449219 C 19.003906 -21.703125 19.257812 -22.058594 19.5625 -22.46875 C 19.820312 -22.773438 20.226562 -23.078125 20.480469 -23.4375 C 20.734375 -23.792969 21.042969 -24.097656 21.296875 -24.503906 C 21.550781 -24.8125 21.804688 -25.21875 22.058594 -25.574219 C 22.316406 -25.933594 22.519531 -26.339844 22.773438 -26.695312 C 23.027344 -27.105469 23.386719 -27.359375 23.589844 -27.714844 C 23.894531 -28.121094 24.097656 -28.480469 24.351562 -28.835938 C 24.609375 -29.242188 24.8125 -29.652344 25.015625 -29.957031 C 25.371094 -30.414062 25.472656 -30.875 25.371094 -31.230469 C 25.269531 -31.636719 25.015625 -31.945312 24.402344 -32.097656 C 24.046875 -32.199219 23.589844 -32.199219 23.027344 -32.199219 C 22.417969 -32.148438 22.007812 -32.25 21.601562 -32.199219 C 20.992188 -32.199219 20.632812 -32.046875 20.277344 -31.894531 C 19.921875 -31.742188 19.5625 -31.535156 19.15625 -31.078125 C 18.851562 -30.773438 18.648438 -30.363281 18.390625 -30.007812 C 18.085938 -29.703125 17.730469 -29.398438 17.476562 -29.039062 C 17.21875 -28.734375 17.015625 -28.328125 16.761719 -27.96875 C 16.507812 -27.613281 16.253906 -27.257812 15.945312 -26.953125 C 15.640625 -26.542969 15.285156 -26.238281 14.980469 -25.882812 C 14.671875 -25.523438 14.367188 -25.117188 14.0625 -24.761719 C 13.753906 -24.402344 13.449219 -24.046875 13.144531 -23.691406 C 12.789062 -23.332031 12.378906 -23.027344 12.074219 -22.671875 C 11.769531 -22.316406 11.464844 -21.957031 11.15625 -21.601562 C 10.851562 -21.246094 10.546875 -20.835938 10.191406 -20.480469 C 9.984375 -20.277344 9.730469 -20.378906 9.730469 -20.683594 C 9.679688 -21.09375 9.476562 -21.550781 9.476562 -22.109375 Z M 9.476562 -22.109375 "/></g></g></g><g fill="#ffffff" fill-opacity="1"><g transform="translate(110.569822, 58.797353)"><g><path d="M 8.863281 -24.300781 C 9.019531 -24.761719 9.222656 -25.167969 9.476562 -25.523438 C 9.730469 -25.882812 10.085938 -26.136719 10.445312 -26.390625 C 10.800781 -26.644531 11.105469 -27.003906 11.566406 -27.15625 C 11.972656 -27.308594 12.429688 -27.359375 12.890625 -27.410156 C 13.398438 -27.511719 13.910156 -27.5625 14.367188 -27.460938 C 14.875 -27.359375 15.335938 -27.207031 15.792969 -27.003906 C 16.253906 -26.796875 16.710938 -26.59375 17.167969 -26.339844 C 17.578125 -26.085938 18.035156 -25.78125 18.441406 -25.523438 C 18.902344 -25.269531 19.308594 -24.964844 19.714844 -24.761719 C 20.226562 -24.453125 20.582031 -24.351562 20.886719 -24.300781 C 21.347656 -24.25 21.703125 -24.351562 22.109375 -24.710938 C 22.367188 -24.964844 22.570312 -25.371094 22.925781 -25.78125 C 23.179688 -26.085938 23.488281 -26.59375 23.742188 -27.15625 C 23.945312 -27.765625 24.148438 -28.429688 23.792969 -28.734375 C 23.078125 -29.292969 22.773438 -29.5 22.417969 -29.753906 C 22.109375 -29.957031 21.753906 -30.210938 20.992188 -30.671875 C 20.53125 -30.976562 20.023438 -31.128906 19.613281 -31.332031 C 19.15625 -31.535156 18.699219 -31.742188 18.238281 -31.894531 C 17.78125 -32.046875 17.320312 -32.25 16.8125 -32.351562 C 16.355469 -32.453125 15.84375 -32.605469 15.335938 -32.65625 C 14.875 -32.707031 14.367188 -32.605469 13.859375 -32.605469 C 13.347656 -32.605469 12.890625 -32.554688 12.480469 -32.503906 C 11.972656 -32.453125 11.515625 -32.453125 11.054688 -32.351562 C 10.597656 -32.25 10.191406 -32.097656 9.730469 -31.945312 C 9.324219 -31.792969 8.914062 -31.585938 8.507812 -31.382812 C 8.050781 -31.179688 7.640625 -30.976562 7.285156 -30.722656 C 6.878906 -30.464844 6.519531 -30.160156 6.214844 -29.855469 C 5.859375 -29.5 5.453125 -29.242188 5.195312 -28.886719 C 4.890625 -28.53125 4.738281 -28.070312 4.484375 -27.664062 C 4.28125 -27.257812 4.023438 -26.898438 3.820312 -26.441406 C 3.667969 -26.035156 3.566406 -25.574219 3.464844 -25.117188 C 3.363281 -24.660156 3.261719 -24.199219 3.210938 -23.742188 C 3.160156 -23.28125 3.160156 -22.824219 3.160156 -22.316406 C 3.160156 -21.855469 3.160156 -21.347656 3.261719 -20.886719 C 3.3125 -20.429688 3.464844 -19.921875 3.617188 -19.511719 C 3.769531 -19.054688 4.074219 -18.648438 4.28125 -18.238281 C 4.535156 -17.832031 4.839844 -17.425781 5.144531 -17.066406 C 5.453125 -16.710938 5.859375 -16.457031 6.265625 -16.148438 C 6.625 -15.84375 7.03125 -15.589844 7.4375 -15.386719 C 7.847656 -15.183594 8.304688 -14.980469 8.761719 -14.824219 C 9.171875 -14.671875 9.628906 -14.519531 10.035156 -14.367188 C 10.496094 -14.214844 10.902344 -14.0625 11.359375 -13.910156 C 11.769531 -13.753906 12.226562 -13.601562 12.636719 -13.449219 C 13.09375 -13.296875 13.5 -13.195312 13.960938 -12.992188 C 14.367188 -12.839844 14.773438 -12.636719 15.183594 -12.480469 C 15.640625 -12.328125 15.996094 -12.023438 16.457031 -11.871094 C 16.863281 -11.71875 17.320312 -11.617188 17.730469 -11.414062 C 18.136719 -11.15625 18.492188 -10.902344 18.800781 -10.597656 C 19.105469 -10.242188 19.359375 -9.882812 19.460938 -9.425781 C 19.511719 -9.019531 19.5625 -8.558594 19.460938 -8.050781 C 19.359375 -7.640625 19.15625 -7.183594 18.851562 -6.726562 C 18.597656 -6.367188 18.1875 -6.113281 17.78125 -5.808594 C 17.425781 -5.503906 16.964844 -5.296875 16.558594 -5.09375 C 16.097656 -4.890625 15.691406 -4.6875 15.234375 -4.585938 C 14.722656 -4.484375 14.265625 -4.535156 13.808594 -4.585938 C 13.296875 -4.636719 12.839844 -4.738281 12.328125 -4.890625 C 11.871094 -5.042969 11.414062 -5.246094 10.953125 -5.503906 C 10.496094 -5.707031 10.035156 -5.910156 9.628906 -6.164062 C 9.171875 -6.417969 8.8125 -6.777344 8.40625 -7.082031 C 8 -7.4375 7.539062 -7.691406 7.285156 -8.050781 C 6.878906 -8.507812 6.625 -8.8125 6.265625 -8.914062 C 5.859375 -9.019531 5.554688 -8.761719 5.09375 -8.40625 C 4.789062 -8.203125 4.484375 -7.898438 4.125 -7.539062 C 3.71875 -7.132812 3.3125 -6.777344 3.058594 -6.46875 C 2.699219 -6.011719 2.394531 -5.554688 2.546875 -5.09375 C 2.699219 -4.738281 3.007812 -4.332031 3.515625 -3.921875 C 3.71875 -3.667969 4.023438 -3.3125 4.535156 -2.902344 C 4.839844 -2.597656 5.195312 -2.292969 5.605469 -1.988281 C 5.960938 -1.730469 6.417969 -1.527344 6.828125 -1.273438 C 7.234375 -1.019531 7.640625 -0.816406 8.101562 -0.613281 C 8.558594 -0.40625 9.019531 -0.355469 9.476562 -0.253906 C 9.933594 -0.101562 10.34375 0.203125 10.851562 0.253906 C 11.257812 0.355469 11.769531 0.304688 12.277344 0.355469 C 12.738281 0.40625 13.195312 0.558594 13.703125 0.558594 C 14.164062 0.558594 14.621094 0.507812 15.03125 0.507812 C 15.539062 0.457031 15.945312 0.355469 16.40625 0.304688 C 16.863281 0.253906 17.269531 0.101562 17.730469 0 C 18.1875 -0.101562 18.597656 -0.203125 19.003906 -0.355469 C 19.460938 -0.507812 19.871094 -0.664062 20.277344 -0.867188 C 20.683594 -1.070312 21.09375 -1.273438 21.449219 -1.527344 C 21.855469 -1.78125 22.164062 -2.140625 22.46875 -2.445312 C 22.824219 -2.699219 23.230469 -2.953125 23.488281 -3.3125 C 23.792969 -3.667969 23.996094 -4.074219 24.199219 -4.484375 C 24.402344 -4.890625 24.660156 -5.246094 24.8125 -5.707031 C 24.964844 -6.113281 25.066406 -6.570312 25.167969 -7.03125 C 25.21875 -7.4375 25.21875 -7.898438 25.21875 -8.355469 C 25.21875 -8.8125 25.21875 -9.273438 25.167969 -9.730469 C 25.117188 -10.136719 25.015625 -10.597656 24.914062 -11.003906 C 24.8125 -11.464844 24.609375 -11.871094 24.453125 -12.277344 C 24.300781 -12.6875 24.199219 -13.09375 23.945312 -13.5 C 23.742188 -13.859375 23.4375 -14.214844 23.179688 -14.570312 C 22.875 -14.875 22.519531 -15.183594 22.214844 -15.488281 C 21.855469 -15.742188 21.601562 -16.097656 21.195312 -16.355469 C 20.835938 -16.609375 20.480469 -16.8125 20.074219 -17.015625 C 19.664062 -17.21875 19.257812 -17.375 18.800781 -17.527344 C 18.390625 -17.628906 17.984375 -17.730469 17.578125 -17.882812 C 17.21875 -17.984375 16.8125 -18.1875 16.40625 -18.289062 C 16.046875 -18.441406 15.640625 -18.542969 15.234375 -18.699219 C 14.824219 -18.851562 14.417969 -18.902344 14.011719 -19.054688 C 13.601562 -19.207031 13.144531 -19.308594 12.6875 -19.511719 C 12.277344 -19.664062 11.871094 -19.921875 11.464844 -20.125 C 11.003906 -20.277344 10.597656 -20.480469 10.191406 -20.734375 C 9.78125 -21.042969 9.476562 -21.347656 9.222656 -21.703125 C 8.914062 -22.058594 8.660156 -22.519531 8.609375 -22.976562 C 8.609375 -23.4375 8.761719 -23.894531 8.863281 -24.300781 Z M 8.863281 -24.300781 "/></g></g></g><g fill="#ffffff" fill-opacity="1"><g transform="translate(138.383827, 58.797353)"><g><path d="M 3.972656 -26.953125 C 3.972656 -26.542969 4.023438 -26.085938 3.972656 -25.574219 C 3.972656 -25.167969 3.921875 -24.710938 3.921875 -24.25 C 3.921875 -23.792969 3.921875 -23.332031 3.921875 -22.875 C 3.921875 -22.417969 3.921875 -21.957031 3.921875 -21.5 C 3.921875 -21.042969 3.820312 -20.582031 3.871094 -20.125 C 3.871094 -19.664062 3.972656 -19.207031 3.972656 -18.75 C 3.972656 -18.289062 3.921875 -17.832031 3.921875 -17.375 C 3.921875 -16.914062 3.871094 -16.457031 3.871094 -15.996094 C 3.871094 -15.539062 3.972656 -15.082031 3.972656 -14.621094 C 3.972656 -14.164062 3.921875 -13.703125 3.921875 -13.246094 C 3.921875 -12.789062 3.921875 -12.328125 3.921875 -11.871094 C 3.921875 -11.414062 3.972656 -10.953125 4.023438 -10.546875 C 4.023438 -10.035156 4.023438 -9.578125 4.023438 -9.171875 C 4.023438 -8.660156 3.921875 -8.203125 3.921875 -7.796875 C 3.921875 -7.285156 4.074219 -6.828125 4.074219 -6.417969 C 4.074219 -5.910156 4.023438 -5.402344 4.023438 -5.042969 C 4.023438 -4.535156 4.125 -4.023438 4.175781 -3.617188 C 4.230469 -3.058594 4.074219 -2.546875 4.175781 -2.191406 C 4.332031 -1.628906 4.636719 -1.273438 4.941406 -0.96875 C 5.246094 -0.664062 5.65625 -0.40625 6.214844 -0.253906 C 6.625 -0.152344 7.082031 -0.152344 7.640625 -0.101562 C 8.101562 -0.101562 8.558594 -0.0507812 9.121094 -0.0507812 C 9.527344 0 9.933594 0 10.34375 0 C 10.800781 0 11.207031 0.101562 11.617188 0.101562 C 12.023438 0.101562 12.429688 -0.0507812 12.890625 -0.0507812 C 13.296875 -0.101562 13.703125 0.0507812 14.113281 0 C 14.621094 -0.0507812 15.082031 -0.152344 15.539062 -0.253906 C 15.996094 -0.304688 16.457031 -0.304688 16.914062 -0.40625 C 17.375 -0.558594 17.832031 -0.714844 18.289062 -0.867188 C 18.699219 -1.019531 19.15625 -1.273438 19.5625 -1.476562 C 19.972656 -1.679688 20.378906 -1.9375 20.734375 -2.191406 C 21.144531 -2.445312 21.5 -2.75 21.855469 -3.058594 C 22.214844 -3.363281 22.621094 -3.617188 22.976562 -3.972656 C 23.28125 -4.332031 23.4375 -4.789062 23.691406 -5.195312 C 23.945312 -5.554688 24.199219 -5.960938 24.453125 -6.367188 C 24.660156 -6.777344 25.015625 -7.132812 25.167969 -7.589844 C 25.371094 -8 25.421875 -8.457031 25.574219 -8.863281 C 25.726562 -9.324219 25.882812 -9.730469 26.035156 -10.136719 C 26.136719 -10.546875 26.339844 -11.003906 26.441406 -11.414062 C 26.542969 -11.820312 26.59375 -12.277344 26.644531 -12.738281 C 26.746094 -13.144531 26.746094 -13.601562 26.796875 -14.0625 C 26.847656 -14.46875 27.003906 -14.925781 27.003906 -15.386719 C 27.054688 -15.792969 27.054688 -16.253906 27.054688 -16.710938 C 27.054688 -17.167969 26.898438 -17.578125 26.898438 -18.035156 C 26.847656 -18.492188 26.796875 -18.902344 26.746094 -19.359375 C 26.695312 -19.820312 26.746094 -20.226562 26.695312 -20.683594 C 26.59375 -21.144531 26.492188 -21.550781 26.390625 -22.007812 C 26.289062 -22.417969 26.1875 -22.875 26.085938 -23.28125 C 25.933594 -23.691406 25.78125 -24.097656 25.625 -24.558594 C 25.472656 -24.964844 25.371094 -25.421875 25.21875 -25.78125 C 25.015625 -26.1875 24.914062 -26.644531 24.710938 -27.003906 C 24.453125 -27.410156 24.148438 -27.765625 23.894531 -28.070312 C 23.640625 -28.429688 23.28125 -28.734375 22.976562 -29.039062 C 22.671875 -29.398438 22.367188 -29.652344 22.007812 -29.957031 C 21.703125 -30.210938 21.296875 -30.414062 20.9375 -30.621094 C 20.53125 -30.824219 20.226562 -31.179688 19.820312 -31.382812 C 19.410156 -31.535156 18.953125 -31.535156 18.492188 -31.636719 C 18.085938 -31.742188 17.679688 -31.945312 17.21875 -31.996094 C 16.761719 -32.046875 16.304688 -32.097656 15.792969 -32.097656 C 15.335938 -32.148438 14.875 -32.25 14.367188 -32.25 C 13.910156 -32.300781 13.449219 -32.25 12.941406 -32.25 C 12.480469 -32.25 12.023438 -32.25 11.515625 -32.25 C 11.054688 -32.25 10.597656 -32.300781 10.085938 -32.300781 C 9.628906 -32.300781 9.171875 -32.199219 8.660156 -32.199219 C 8.203125 -32.148438 7.742188 -32.199219 7.234375 -32.148438 C 6.675781 -32.148438 6.164062 -32.097656 5.757812 -31.996094 C 5.195312 -31.84375 4.789062 -31.585938 4.535156 -31.230469 C 4.28125 -30.875 4.074219 -30.414062 3.972656 -29.804688 C 3.921875 -29.398438 4.023438 -28.886719 4.023438 -28.328125 C 4.023438 -27.96875 3.972656 -27.511719 3.972656 -26.953125 Z M 9.628906 -7.386719 C 9.578125 -7.847656 9.578125 -8.355469 9.527344 -8.8125 C 9.527344 -9.273438 9.476562 -9.730469 9.476562 -10.191406 C 9.476562 -10.699219 9.476562 -11.15625 9.476562 -11.617188 C 9.476562 -12.074219 9.476562 -12.585938 9.476562 -13.042969 C 9.476562 -13.5 9.628906 -13.960938 9.628906 -14.417969 C 9.628906 -14.925781 9.425781 -15.386719 9.425781 -15.84375 C 9.425781 -16.304688 9.476562 -16.8125 9.476562 -17.269531 C 9.476562 -17.730469 9.628906 -18.1875 9.628906 -18.648438 C 9.628906 -19.105469 9.476562 -19.613281 9.476562 -20.074219 C 9.476562 -20.53125 9.527344 -20.992188 9.527344 -21.449219 C 9.527344 -21.90625 9.578125 -22.367188 9.527344 -22.875 C 9.527344 -23.332031 9.527344 -23.792969 9.476562 -24.25 C 9.476562 -24.710938 9.375 -25.167969 9.375 -25.625 C 9.324219 -26.390625 9.578125 -26.695312 9.832031 -26.898438 C 10.136719 -27.105469 10.597656 -27.105469 11.207031 -27.054688 C 11.617188 -27.054688 12.074219 -27.105469 12.636719 -27.15625 C 13.144531 -27.15625 13.601562 -27.15625 14.0625 -27.15625 C 14.570312 -27.105469 15.03125 -26.953125 15.488281 -26.847656 C 15.945312 -26.746094 16.40625 -26.644531 16.863281 -26.441406 C 17.269531 -26.289062 17.730469 -26.085938 18.085938 -25.78125 C 18.492188 -25.523438 18.902344 -25.269531 19.207031 -24.914062 C 19.511719 -24.558594 19.769531 -24.097656 19.972656 -23.691406 C 20.226562 -23.28125 20.328125 -22.824219 20.480469 -22.367188 C 20.632812 -21.90625 20.835938 -21.5 20.9375 -20.992188 C 21.042969 -20.53125 21.195312 -20.074219 21.195312 -19.613281 C 21.246094 -19.15625 21.296875 -18.75 21.296875 -18.339844 C 21.296875 -17.933594 21.347656 -17.527344 21.347656 -17.066406 C 21.347656 -16.660156 21.195312 -16.253906 21.195312 -15.84375 C 21.144531 -15.4375 21.296875 -14.980469 21.296875 -14.570312 C 21.246094 -14.0625 21.09375 -13.601562 21.042969 -13.144531 C 20.992188 -12.6875 20.9375 -12.175781 20.835938 -11.769531 C 20.734375 -11.257812 20.53125 -10.851562 20.378906 -10.394531 C 20.226562 -9.933594 20.074219 -9.476562 19.871094 -9.070312 C 19.613281 -8.660156 19.308594 -8.304688 19.003906 -7.949219 C 18.699219 -7.589844 18.289062 -7.335938 17.933594 -7.03125 C 17.527344 -6.777344 17.117188 -6.519531 16.660156 -6.316406 C 16.253906 -6.164062 15.792969 -6.0625 15.335938 -5.960938 C 14.875 -5.859375 14.417969 -5.808594 13.910156 -5.808594 C 13.449219 -5.757812 12.992188 -5.707031 12.480469 -5.707031 C 12.023438 -5.707031 11.566406 -5.808594 11.054688 -5.859375 C 10.597656 -5.910156 10.085938 -5.859375 9.578125 -5.960938 C 9.578125 -6.417969 9.628906 -6.929688 9.628906 -7.386719 Z M 9.628906 -7.386719 "/></g></g></g><g fill="#ffffff" fill-opacity="1"><g transform="translate(168.18455, 58.797353)"><g><path d="M 9.578125 -17.476562 C 9.578125 -17.933594 9.578125 -18.390625 9.578125 -18.851562 C 9.578125 -19.308594 9.578125 -19.820312 9.578125 -20.277344 C 9.578125 -20.734375 9.679688 -21.195312 9.679688 -21.652344 C 9.679688 -22.109375 9.78125 -22.621094 9.78125 -23.078125 C 9.78125 -23.539062 9.679688 -23.996094 9.679688 -24.453125 C 9.679688 -24.914062 9.628906 -25.371094 9.628906 -25.832031 C 9.628906 -26.339844 9.679688 -26.796875 9.679688 -27.257812 C 9.679688 -27.714844 9.628906 -28.175781 9.628906 -28.632812 C 9.628906 -29.140625 9.78125 -29.601562 9.730469 -30.007812 C 9.679688 -30.570312 9.527344 -31.027344 9.375 -31.382812 C 9.171875 -31.84375 8.761719 -31.945312 8.253906 -32.046875 C 7.898438 -32.097656 7.4375 -32.199219 6.878906 -32.199219 C 6.367188 -32.199219 5.910156 -32.148438 5.554688 -32.097656 C 5.09375 -31.996094 4.6875 -31.945312 4.433594 -31.433594 C 4.28125 -31.128906 4.175781 -30.722656 4.125 -30.109375 C 4.074219 -29.703125 4.074219 -29.242188 4.074219 -28.734375 C 4.074219 -28.277344 4.175781 -27.867188 4.175781 -27.410156 C 4.175781 -26.953125 4.175781 -26.492188 4.175781 -26.035156 C 4.125 -25.574219 4.125 -25.117188 4.125 -24.660156 C 4.125 -24.199219 4.023438 -23.742188 4.023438 -23.28125 C 4.023438 -22.875 4.074219 -22.417969 4.074219 -21.957031 C 4.074219 -21.5 4.125 -21.042969 4.125 -20.582031 C 4.125 -20.125 3.972656 -19.664062 3.972656 -19.207031 C 3.972656 -18.75 4.125 -18.289062 4.125 -17.832031 C 4.125 -17.375 4.074219 -16.914062 4.074219 -16.457031 C 4.074219 -15.996094 3.972656 -15.589844 3.972656 -15.132812 C 3.972656 -14.671875 4.074219 -14.214844 4.074219 -13.753906 C 4.074219 -13.296875 3.921875 -12.839844 3.921875 -12.378906 C 3.921875 -11.921875 3.921875 -11.515625 3.921875 -11.054688 C 3.921875 -10.597656 4.023438 -10.136719 4.023438 -9.679688 C 4.023438 -9.222656 3.921875 -8.761719 3.921875 -8.304688 C 3.921875 -7.898438 4.023438 -7.4375 4.023438 -6.980469 C 4.023438 -6.519531 3.972656 -6.0625 3.972656 -5.605469 C 3.972656 -5.195312 3.871094 -4.738281 3.871094 -4.28125 C 3.871094 -3.871094 3.871094 -3.414062 3.820312 -2.851562 C 3.769531 -2.445312 3.769531 -1.988281 3.769531 -1.425781 C 3.71875 -0.765625 4.023438 -0.304688 4.484375 -0.101562 C 4.992188 0.203125 5.707031 0.101562 6.011719 0.101562 C 6.46875 0.101562 6.980469 0.0507812 7.4375 0.0507812 C 7.949219 0 8.457031 -0.0507812 8.863281 -0.152344 C 9.375 -0.355469 9.679688 -0.613281 9.628906 -1.121094 C 9.578125 -1.527344 9.628906 -1.9375 9.628906 -2.34375 C 9.628906 -2.75 9.578125 -3.160156 9.578125 -3.515625 C 9.578125 -3.921875 9.730469 -4.332031 9.730469 -4.738281 C 9.730469 -5.195312 9.679688 -5.65625 9.679688 -6.113281 C 9.679688 -6.625 9.730469 -7.082031 9.730469 -7.539062 C 9.730469 -8.050781 9.679688 -8.507812 9.679688 -8.964844 C 9.679688 -9.425781 9.679688 -9.933594 9.679688 -10.394531 C 9.679688 -10.851562 9.679688 -11.359375 9.679688 -11.820312 C 9.679688 -12.277344 9.679688 -12.789062 9.679688 -13.246094 C 9.679688 -13.703125 9.679688 -14.164062 9.679688 -14.671875 C 9.679688 -15.132812 9.78125 -15.589844 9.78125 -16.097656 C 9.78125 -16.507812 9.578125 -17.015625 9.578125 -17.476562 Z M 9.578125 -17.476562 "/></g></g></g><g fill="#ffffff" fill-opacity="1"><g transform="translate(181.938734, 58.797353)"><g><path d="M 10.953125 -12.585938 C 11.464844 -12.6875 11.921875 -12.941406 12.328125 -12.992188 C 12.890625 -13.042969 13.398438 -12.992188 13.808594 -12.941406 C 14.367188 -12.941406 14.773438 -12.839844 15.183594 -12.585938 C 15.539062 -12.378906 15.894531 -12.074219 16.203125 -11.617188 C 16.40625 -11.257812 16.609375 -10.800781 16.863281 -10.292969 C 17.015625 -9.882812 17.167969 -9.425781 17.425781 -8.964844 C 17.578125 -8.558594 17.882812 -8.152344 18.085938 -7.691406 C 18.289062 -7.234375 18.390625 -6.777344 18.597656 -6.316406 C 18.800781 -5.859375 19.003906 -5.453125 19.207031 -4.992188 C 19.410156 -4.535156 19.714844 -4.175781 19.921875 -3.71875 C 20.125 -3.3125 20.378906 -2.851562 20.53125 -2.445312 C 20.785156 -1.9375 20.886719 -1.476562 21.09375 -1.121094 C 21.398438 -0.613281 21.804688 -0.40625 22.109375 -0.203125 C 22.519531 0 22.875 0 23.4375 0 C 23.84375 -0.0507812 24.300781 -0.0507812 24.863281 -0.0507812 C 25.371094 -0.0507812 25.832031 0 26.136719 -0.0507812 C 26.695312 -0.152344 26.953125 -0.355469 26.898438 -0.867188 C 26.847656 -1.171875 26.796875 -1.628906 26.59375 -2.140625 C 26.492188 -2.496094 26.1875 -2.851562 25.984375 -3.3125 C 25.832031 -3.71875 25.675781 -4.125 25.472656 -4.585938 C 25.320312 -4.992188 25.015625 -5.402344 24.8125 -5.859375 C 24.660156 -6.265625 24.453125 -6.675781 24.300781 -7.132812 C 24.097656 -7.539062 23.894531 -7.949219 23.691406 -8.355469 C 23.488281 -8.8125 23.332031 -9.222656 23.128906 -9.628906 C 22.925781 -10.085938 22.773438 -10.496094 22.570312 -10.902344 C 22.367188 -11.359375 22.164062 -11.769531 22.007812 -12.175781 C 21.804688 -12.585938 21.703125 -13.09375 21.550781 -13.5 C 21.398438 -13.808594 21.398438 -14.214844 21.703125 -14.46875 C 22.164062 -14.875 22.570312 -15.285156 22.925781 -15.589844 C 23.386719 -15.996094 23.894531 -16.253906 24.300781 -16.660156 C 24.609375 -17.015625 24.8125 -17.425781 25.066406 -17.78125 C 25.320312 -18.136719 25.574219 -18.542969 25.78125 -18.953125 C 25.933594 -19.359375 26.035156 -19.820312 26.1875 -20.226562 C 26.289062 -20.683594 26.390625 -21.09375 26.441406 -21.550781 C 26.492188 -21.957031 26.59375 -22.417969 26.59375 -22.875 C 26.59375 -23.332031 26.644531 -23.792969 26.59375 -24.25 C 26.542969 -24.660156 26.339844 -25.117188 26.1875 -25.523438 C 26.085938 -25.984375 25.882812 -26.390625 25.726562 -26.796875 C 25.523438 -27.207031 25.371094 -27.613281 25.117188 -27.96875 C 24.863281 -28.328125 24.609375 -28.683594 24.300781 -29.039062 C 23.996094 -29.347656 23.640625 -29.652344 23.28125 -29.90625 C 22.925781 -30.210938 22.621094 -30.464844 22.214844 -30.722656 C 21.804688 -30.925781 21.398438 -31.078125 20.992188 -31.230469 C 20.582031 -31.382812 20.175781 -31.636719 19.714844 -31.6875 C 19.207031 -31.792969 18.75 -31.742188 18.238281 -31.84375 C 17.78125 -31.894531 17.320312 -31.996094 16.8125 -32.046875 C 16.355469 -32.097656 15.84375 -32.097656 15.386719 -32.148438 C 14.875 -32.148438 14.417969 -32.199219 13.910156 -32.25 C 13.449219 -32.25 12.941406 -32.199219 12.480469 -32.25 C 12.023438 -32.25 11.515625 -32.25 11.054688 -32.25 C 10.546875 -32.25 10.085938 -32.300781 9.578125 -32.300781 C 9.121094 -32.25 8.609375 -32.199219 8.152344 -32.199219 C 7.589844 -32.199219 7.082031 -32.25 6.625 -32.25 C 6.011719 -32.25 5.554688 -32.148438 5.144531 -31.996094 C 4.6875 -31.792969 4.433594 -31.484375 4.28125 -30.875 C 4.230469 -30.464844 4.175781 -29.957031 4.175781 -29.347656 C 4.125 -28.886719 4.125 -28.429688 4.125 -27.96875 C 4.125 -27.5625 4.125 -27.105469 4.125 -26.644531 C 4.125 -26.1875 4.125 -25.726562 4.125 -25.269531 C 4.125 -24.8125 4.125 -24.351562 4.125 -23.894531 C 4.125 -23.4375 4.074219 -22.976562 4.023438 -22.519531 C 4.023438 -22.058594 3.921875 -21.601562 3.921875 -21.144531 C 3.921875 -20.683594 4.023438 -20.226562 4.023438 -19.769531 C 4.023438 -19.308594 3.972656 -18.851562 3.972656 -18.390625 C 3.972656 -17.933594 3.972656 -17.476562 3.972656 -17.015625 C 3.972656 -16.558594 3.972656 -16.097656 3.972656 -15.640625 C 3.972656 -15.183594 4.023438 -14.722656 4.023438 -14.265625 C 4.023438 -13.808594 3.921875 -13.398438 3.921875 -12.941406 C 3.921875 -12.480469 3.921875 -12.023438 3.921875 -11.566406 C 3.921875 -11.105469 3.972656 -10.648438 3.972656 -10.191406 C 3.972656 -9.730469 3.921875 -9.273438 3.921875 -8.863281 C 3.972656 -8.40625 3.972656 -7.949219 3.972656 -7.488281 C 3.972656 -7.03125 3.972656 -6.570312 3.972656 -6.113281 C 3.972656 -5.65625 4.074219 -5.195312 4.074219 -4.738281 C 4.074219 -4.332031 3.972656 -3.871094 3.921875 -3.363281 C 3.871094 -2.851562 3.921875 -2.394531 3.921875 -1.9375 C 3.972656 -1.375 3.921875 -0.867188 4.125 -0.507812 C 4.28125 -0.152344 4.890625 -0.101562 5.453125 0 C 6.011719 0.101562 6.625 0.101562 6.929688 0.0507812 C 7.335938 -0.0507812 7.796875 0 8.203125 -0.0507812 C 8.710938 -0.152344 9.171875 -0.253906 9.324219 -0.664062 C 9.476562 -1.070312 9.527344 -1.628906 9.527344 -2.191406 C 9.578125 -2.699219 9.578125 -3.261719 9.578125 -3.769531 C 9.527344 -4.382812 9.527344 -4.890625 9.527344 -5.347656 C 9.527344 -5.808594 9.527344 -6.316406 9.527344 -6.777344 C 9.527344 -7.234375 9.527344 -7.742188 9.527344 -8.203125 C 9.527344 -8.660156 9.425781 -9.171875 9.425781 -9.628906 C 9.425781 -10.085938 9.578125 -10.597656 9.578125 -11.054688 C 9.578125 -11.515625 9.425781 -12.023438 9.425781 -12.480469 C 9.984375 -12.585938 10.496094 -12.53125 10.953125 -12.585938 Z M 9.679688 -19.664062 C 9.679688 -20.175781 9.730469 -20.632812 9.730469 -21.09375 C 9.730469 -21.601562 9.730469 -22.058594 9.730469 -22.519531 C 9.730469 -22.976562 9.679688 -23.488281 9.679688 -23.945312 C 9.679688 -24.402344 9.730469 -24.914062 9.730469 -25.371094 C 9.730469 -25.832031 9.730469 -26.238281 9.730469 -26.746094 C 10.242188 -26.746094 10.648438 -26.796875 11.105469 -26.796875 C 11.566406 -26.796875 12.023438 -26.796875 12.480469 -26.796875 C 12.992188 -26.796875 13.449219 -26.847656 13.910156 -26.847656 C 14.367188 -26.847656 14.824219 -26.847656 15.285156 -26.847656 C 15.742188 -26.796875 16.253906 -26.847656 16.710938 -26.847656 C 17.167969 -26.796875 17.578125 -26.695312 17.933594 -26.542969 C 18.390625 -26.441406 18.851562 -26.390625 19.207031 -26.1875 C 19.5625 -25.984375 19.871094 -25.625 20.175781 -25.371094 C 20.480469 -25.066406 20.835938 -24.761719 20.992188 -24.402344 C 21.195312 -23.996094 21.296875 -23.539062 21.296875 -23.128906 C 21.347656 -22.621094 21.195312 -22.164062 21.042969 -21.652344 C 20.886719 -21.195312 20.53125 -20.835938 20.226562 -20.429688 C 19.921875 -20.074219 19.613281 -19.664062 19.207031 -19.359375 C 18.851562 -19.105469 18.390625 -18.851562 17.933594 -18.699219 C 17.476562 -18.492188 17.015625 -18.390625 16.507812 -18.339844 C 16.097656 -18.339844 15.640625 -18.238281 15.183594 -18.238281 C 14.722656 -18.238281 14.265625 -18.238281 13.808594 -18.238281 C 13.347656 -18.238281 12.890625 -18.136719 12.429688 -18.136719 C 11.972656 -18.136719 11.515625 -18.289062 11.054688 -18.289062 C 10.597656 -18.339844 10.136719 -18.1875 9.628906 -18.1875 C 9.628906 -18.699219 9.730469 -19.207031 9.679688 -19.664062 Z M 9.679688 -19.664062 "/></g></g></g><g fill="#ffffff" fill-opacity="1"><g transform="translate(211.535705, 58.797353)"><g><path d="M 11.15625 -26.390625 C 11.667969 -26.390625 12.125 -26.441406 12.636719 -26.441406 C 13.09375 -26.441406 13.550781 -26.339844 14.0625 -26.339844 C 14.519531 -26.339844 14.980469 -26.390625 15.488281 -26.390625 C 15.945312 -26.390625 16.457031 -26.339844 16.914062 -26.339844 C 17.375 -26.339844 17.882812 -26.339844 18.339844 -26.339844 C 18.800781 -26.339844 19.308594 -26.441406 19.769531 -26.441406 C 20.226562 -26.441406 20.734375 -26.441406 21.195312 -26.441406 C 21.804688 -26.441406 22.316406 -26.390625 22.722656 -26.492188 C 23.28125 -26.59375 23.589844 -26.796875 23.84375 -27.308594 C 24.046875 -27.664062 24.199219 -28.121094 24.25 -28.785156 C 24.25 -29.292969 24.300781 -29.804688 24.300781 -30.210938 C 24.300781 -30.773438 24.25 -31.230469 23.945312 -31.585938 C 23.640625 -31.792969 23.28125 -32.097656 22.621094 -32.199219 C 22.214844 -32.25 21.703125 -32.148438 21.144531 -32.148438 C 20.683594 -32.148438 20.226562 -32.199219 19.820312 -32.148438 C 19.359375 -32.148438 18.902344 -32.300781 18.492188 -32.25 C 18.035156 -32.25 17.578125 -32.148438 17.117188 -32.148438 C 16.710938 -32.097656 16.253906 -32.046875 15.792969 -31.996094 C 15.386719 -31.996094 14.925781 -32.046875 14.46875 -32.046875 C 14.011719 -31.996094 13.5 -31.894531 13.042969 -31.894531 C 12.53125 -31.894531 12.023438 -31.894531 11.566406 -31.945312 C 11.054688 -31.945312 10.597656 -32.046875 10.085938 -32.097656 C 9.628906 -32.148438 9.121094 -32.148438 8.660156 -32.199219 C 8.152344 -32.199219 7.640625 -32.199219 7.183594 -32.199219 C 6.675781 -32.199219 6.214844 -32.351562 5.707031 -32.351562 C 5.195312 -32.351562 4.789062 -32.199219 4.28125 -32.148438 C 4.28125 -31.742188 4.230469 -31.332031 4.230469 -30.875 C 4.230469 -30.414062 4.125 -29.957031 4.074219 -29.5 C 4.074219 -29.039062 4.175781 -28.582031 4.175781 -28.175781 C 4.175781 -27.714844 4.125 -27.257812 4.125 -26.796875 C 4.074219 -26.339844 4.074219 -25.882812 4.074219 -25.421875 C 4.074219 -24.964844 4.125 -24.503906 4.125 -24.097656 C 4.125 -23.640625 4.125 -23.179688 4.125 -22.722656 C 4.125 -22.265625 3.972656 -21.804688 3.972656 -21.347656 C 3.972656 -20.9375 4.074219 -20.480469 4.074219 -20.023438 C 4.074219 -19.5625 4.023438 -19.105469 4.023438 -18.648438 C 4.023438 -18.238281 4.125 -17.78125 4.074219 -17.320312 C 4.074219 -16.863281 3.921875 -16.40625 3.871094 -15.945312 C 3.871094 -15.539062 4.023438 -15.082031 3.972656 -14.621094 C 3.972656 -14.164062 3.921875 -13.703125 3.871094 -13.296875 C 3.871094 -12.839844 3.921875 -12.378906 3.921875 -11.921875 C 3.921875 -11.464844 3.921875 -11.003906 3.921875 -10.597656 C 3.921875 -10.136719 3.921875 -9.679688 3.921875 -9.222656 C 3.921875 -8.8125 3.871094 -8.355469 3.871094 -7.898438 C 3.820312 -7.4375 4.023438 -6.980469 4.023438 -6.519531 C 4.023438 -6.113281 3.871094 -5.65625 3.871094 -5.195312 C 3.871094 -4.738281 3.972656 -4.28125 3.972656 -3.871094 C 3.972656 -3.414062 3.871094 -2.953125 3.871094 -2.496094 C 3.871094 -2.140625 4.230469 -1.578125 4.6875 -1.121094 C 5.144531 -0.664062 5.707031 -0.355469 6.113281 -0.304688 C 6.519531 -0.304688 6.980469 -0.253906 7.4375 -0.253906 C 7.847656 -0.203125 8.304688 -0.253906 8.761719 -0.203125 C 9.171875 -0.203125 9.628906 -0.0507812 10.085938 0 C 10.496094 0 10.953125 -0.152344 11.414062 -0.152344 C 11.871094 -0.152344 12.277344 -0.101562 12.738281 -0.101562 C 13.195312 -0.101562 13.652344 0.0507812 14.0625 0.101562 C 14.519531 0.101562 14.980469 -0.0507812 15.386719 -0.0507812 C 15.84375 0 16.304688 0.0507812 16.761719 0.0507812 C 17.167969 0.0507812 17.628906 0.101562 18.085938 0.101562 C 18.492188 0.101562 18.953125 0.0507812 19.410156 0.0507812 C 19.871094 0.0507812 20.277344 -0.0507812 20.734375 -0.0507812 C 21.195312 -0.0507812 21.601562 0.0507812 22.058594 0.0507812 C 22.570312 0.0507812 22.976562 -0.101562 23.230469 -0.355469 C 23.589844 -0.613281 23.691406 -0.96875 23.792969 -1.425781 C 23.84375 -1.78125 23.792969 -2.191406 23.640625 -2.597656 C 23.539062 -3.007812 23.4375 -3.414062 23.230469 -3.769531 C 22.976562 -4.175781 22.671875 -4.535156 22.417969 -4.839844 C 22.109375 -5.144531 21.753906 -5.347656 21.195312 -5.402344 C 20.734375 -5.453125 20.226562 -5.402344 19.714844 -5.402344 C 19.207031 -5.402344 18.699219 -5.503906 18.1875 -5.503906 C 17.679688 -5.503906 17.167969 -5.554688 16.660156 -5.554688 C 16.148438 -5.554688 15.691406 -5.453125 15.183594 -5.453125 C 14.671875 -5.453125 14.164062 -5.347656 13.652344 -5.402344 C 13.144531 -5.402344 12.6875 -5.402344 12.175781 -5.402344 C 11.667969 -5.402344 11.15625 -5.347656 10.699219 -5.347656 C 9.832031 -5.347656 9.882812 -5.042969 9.324219 -5.503906 C 8.8125 -5.859375 9.121094 -5.910156 9.070312 -6.675781 C 9.070312 -7.03125 9.121094 -7.488281 9.121094 -7.949219 C 9.121094 -8.304688 9.070312 -8.761719 9.070312 -9.171875 C 9.070312 -9.578125 9.070312 -10.035156 9.121094 -10.394531 C 9.121094 -10.851562 9.070312 -11.308594 9.121094 -11.769531 C 9.171875 -12.175781 9.222656 -12.585938 9.375 -13.09375 C 9.78125 -13.09375 10.242188 -13.042969 10.699219 -13.042969 C 11.15625 -12.992188 11.617188 -13.042969 12.023438 -13.042969 C 12.480469 -13.042969 12.941406 -12.992188 13.398438 -12.992188 C 13.859375 -12.992188 14.265625 -12.992188 14.722656 -12.992188 C 15.183594 -12.992188 15.589844 -13.042969 16.046875 -13.09375 C 16.507812 -13.09375 16.914062 -13.042969 17.375 -13.042969 C 17.882812 -13.042969 18.289062 -13.195312 18.648438 -13.195312 C 19.15625 -13.246094 19.613281 -13.195312 19.921875 -13.347656 C 20.378906 -13.5 20.683594 -13.808594 20.835938 -14.265625 C 20.9375 -14.570312 20.785156 -15.03125 20.734375 -15.539062 C 20.734375 -15.894531 20.785156 -16.355469 20.683594 -16.8125 C 20.632812 -17.21875 20.53125 -17.679688 20.429688 -18.136719 C 19.972656 -18.1875 19.410156 -18.085938 18.953125 -18.085938 C 18.441406 -18.136719 17.984375 -18.238281 17.476562 -18.238281 C 16.964844 -18.238281 16.507812 -18.339844 15.996094 -18.339844 C 15.488281 -18.390625 15.03125 -18.238281 14.519531 -18.289062 C 14.011719 -18.339844 13.550781 -18.542969 13.042969 -18.597656 C 12.6875 -18.597656 12.226562 -18.492188 11.820312 -18.492188 C 11.414062 -18.492188 11.003906 -18.542969 10.597656 -18.542969 C 9.882812 -18.542969 9.730469 -18.035156 9.324219 -18.492188 C 8.863281 -19.003906 9.375 -19.15625 9.324219 -19.921875 C 9.324219 -20.328125 9.222656 -20.835938 9.222656 -21.296875 C 9.222656 -21.753906 9.324219 -22.265625 9.324219 -22.671875 C 9.324219 -23.078125 9.375 -23.4375 9.425781 -23.894531 C 9.476562 -24.25 9.425781 -24.660156 9.476562 -25.117188 C 9.527344 -25.523438 9.679688 -25.882812 9.730469 -26.339844 C 10.242188 -26.339844 10.699219 -26.390625 11.15625 -26.390625 Z M 11.15625 -26.390625 "/></g></g></g><g fill="#ffffff" fill-opacity="1"><g transform="translate(238.127104, 58.797353)"><g><path d="M 18.699219 0.101562 C 19.207031 0 19.714844 -0.101562 20.226562 -0.253906 C 20.734375 -0.355469 21.195312 -0.664062 21.703125 -0.867188 C 22.164062 -1.070312 22.671875 -1.171875 23.128906 -1.476562 C 23.589844 -1.730469 24.046875 -2.039062 24.453125 -2.34375 C 24.914062 -2.75 25.167969 -3.210938 25.472656 -3.566406 C 25.832031 -4.023438 26.1875 -4.433594 26.289062 -4.941406 C 26.390625 -5.402344 26.390625 -5.960938 26.136719 -6.519531 C 25.984375 -6.929688 25.574219 -7.285156 25.167969 -7.796875 C 24.761719 -8.304688 24.402344 -8.660156 23.945312 -8.710938 C 23.4375 -8.761719 22.976562 -8.40625 22.519531 -8.101562 C 22.058594 -7.847656 21.652344 -7.539062 21.195312 -7.183594 C 20.785156 -6.828125 20.378906 -6.46875 19.921875 -6.214844 C 19.5625 -6.011719 19.105469 -5.910156 18.648438 -5.757812 C 18.238281 -5.65625 17.78125 -5.503906 17.320312 -5.453125 C 16.914062 -5.402344 16.40625 -5.503906 15.996094 -5.503906 C 15.539062 -5.554688 15.082031 -5.605469 14.671875 -5.757812 C 14.214844 -5.859375 13.753906 -5.910156 13.347656 -6.113281 C 12.890625 -6.316406 12.53125 -6.675781 12.175781 -6.929688 C 11.769531 -7.234375 11.414062 -7.539062 11.105469 -7.949219 C 10.800781 -8.304688 10.445312 -8.660156 10.242188 -9.121094 C 9.984375 -9.527344 9.78125 -9.984375 9.578125 -10.445312 C 9.425781 -10.902344 9.273438 -11.359375 9.121094 -11.820312 C 9.019531 -12.277344 9.019531 -12.789062 8.914062 -13.296875 C 8.863281 -13.753906 8.8125 -14.265625 8.8125 -14.722656 C 8.761719 -15.234375 8.609375 -15.691406 8.609375 -16.148438 C 8.609375 -16.660156 8.507812 -17.167969 8.507812 -17.628906 C 8.558594 -18.136719 8.660156 -18.648438 8.710938 -19.105469 C 8.761719 -19.613281 8.761719 -20.125 8.863281 -20.582031 C 8.964844 -21.09375 9.273438 -21.550781 9.425781 -22.007812 C 9.578125 -22.46875 9.730469 -22.925781 9.984375 -23.332031 C 10.242188 -23.792969 10.394531 -24.300781 10.75 -24.660156 C 11.054688 -25.015625 11.464844 -25.320312 11.921875 -25.574219 C 12.277344 -25.832031 12.738281 -26.136719 13.246094 -26.289062 C 13.652344 -26.441406 14.214844 -26.390625 14.722656 -26.441406 C 15.183594 -26.492188 15.589844 -26.492188 16.046875 -26.441406 C 16.507812 -26.390625 16.914062 -26.339844 17.320312 -26.238281 C 17.78125 -26.085938 18.1875 -25.984375 18.597656 -25.78125 C 19.003906 -25.625 19.410156 -25.371094 19.769531 -25.117188 C 20.125 -24.863281 20.480469 -24.609375 20.835938 -24.300781 C 21.347656 -23.894531 21.753906 -23.539062 22.164062 -23.332031 C 22.722656 -23.027344 23.230469 -23.078125 23.792969 -23.28125 C 24.148438 -23.4375 24.558594 -23.792969 25.066406 -24.25 C 25.523438 -24.660156 25.984375 -24.914062 26.1875 -25.269531 C 26.441406 -25.625 26.289062 -26.085938 26.136719 -26.695312 C 25.984375 -27.15625 25.78125 -27.5625 25.523438 -27.917969 C 25.21875 -28.328125 24.964844 -28.734375 24.660156 -29.039062 C 24.300781 -29.398438 23.84375 -29.652344 23.4375 -29.957031 C 23.027344 -30.3125 22.722656 -30.722656 22.265625 -30.976562 C 21.855469 -31.230469 21.347656 -31.433594 20.886719 -31.636719 C 20.429688 -31.84375 19.921875 -31.894531 19.410156 -31.996094 C 18.953125 -32.148438 18.492188 -32.300781 18.035156 -32.402344 C 17.527344 -32.453125 17.066406 -32.402344 16.558594 -32.402344 C 16.097656 -32.453125 15.640625 -32.503906 15.183594 -32.503906 C 14.671875 -32.453125 14.214844 -32.503906 13.703125 -32.453125 C 13.246094 -32.402344 12.789062 -32.199219 12.328125 -32.097656 C 11.871094 -31.996094 11.414062 -31.84375 10.953125 -31.6875 C 10.496094 -31.484375 10.035156 -31.382812 9.628906 -31.128906 C 9.222656 -30.925781 8.863281 -30.570312 8.457031 -30.3125 C 8.101562 -30.007812 7.742188 -29.703125 7.386719 -29.398438 C 7.03125 -29.089844 6.675781 -28.785156 6.367188 -28.429688 C 6.011719 -28.019531 5.757812 -27.613281 5.453125 -27.207031 C 5.195312 -26.796875 4.890625 -26.390625 4.6875 -25.933594 C 4.484375 -25.472656 4.332031 -25.015625 4.175781 -24.503906 C 4.023438 -24.046875 3.769531 -23.640625 3.617188 -23.128906 C 3.464844 -22.671875 3.414062 -22.164062 3.3125 -21.652344 C 3.160156 -21.195312 3.058594 -20.683594 3.007812 -20.226562 C 2.902344 -19.714844 2.902344 -19.207031 2.851562 -18.699219 C 2.800781 -18.1875 2.75 -17.730469 2.75 -17.21875 C 2.699219 -16.710938 2.75 -16.203125 2.75 -15.742188 C 2.75 -15.234375 2.75 -14.773438 2.75 -14.265625 C 2.800781 -13.808594 2.902344 -13.347656 2.953125 -12.890625 C 3.058594 -12.378906 3.007812 -11.921875 3.109375 -11.414062 C 3.261719 -10.953125 3.464844 -10.546875 3.617188 -10.085938 C 3.71875 -9.578125 3.871094 -9.171875 4.074219 -8.710938 C 4.230469 -8.253906 4.332031 -7.796875 4.535156 -7.335938 C 4.738281 -6.929688 5.042969 -6.519531 5.246094 -6.113281 C 5.503906 -5.65625 5.65625 -5.195312 5.910156 -4.789062 C 6.164062 -4.433594 6.417969 -3.972656 6.726562 -3.617188 C 6.980469 -3.210938 7.386719 -2.953125 7.742188 -2.597656 C 8.101562 -2.292969 8.40625 -1.886719 8.8125 -1.628906 C 9.171875 -1.324219 9.628906 -1.121094 10.035156 -0.917969 C 10.496094 -0.664062 10.953125 -0.558594 11.414062 -0.40625 C 11.871094 -0.253906 12.328125 -0.152344 12.839844 -0.0507812 C 13.296875 0 13.753906 0.152344 14.214844 0.203125 C 14.722656 0.253906 15.183594 0.355469 15.691406 0.355469 C 16.148438 0.355469 16.609375 0.203125 17.117188 0.152344 C 17.628906 0.152344 18.136719 0.152344 18.699219 0.101562 Z M 18.699219 0.101562 "/></g></g></g><g fill="#ffffff" fill-opacity="1"><g transform="translate(266.807118, 58.797353)"><g><path d="M 15.589844 -26.542969 C 16.097656 -26.542969 16.609375 -26.492188 17.015625 -26.492188 C 17.527344 -26.492188 17.984375 -26.492188 18.441406 -26.492188 C 18.953125 -26.492188 19.410156 -26.492188 19.871094 -26.492188 C 20.480469 -26.492188 20.9375 -26.644531 21.296875 -26.847656 C 21.703125 -27.105469 22.007812 -27.460938 22.109375 -28.019531 C 22.214844 -28.429688 22.265625 -28.9375 22.265625 -29.5 C 22.265625 -30.007812 22.164062 -30.464844 22.058594 -30.824219 C 21.957031 -31.28125 21.703125 -31.6875 21.296875 -31.84375 C 20.992188 -31.996094 20.53125 -32.046875 19.972656 -32.046875 C 19.511719 -32.046875 19.054688 -32.046875 18.597656 -32.097656 C 18.136719 -32.097656 17.628906 -32.046875 17.167969 -32.046875 C 16.710938 -32.046875 16.253906 -32.097656 15.792969 -32.097656 C 15.335938 -32.097656 14.875 -32.046875 14.417969 -32.046875 C 13.960938 -32.046875 13.5 -32.148438 12.992188 -32.148438 C 12.53125 -32.148438 12.074219 -32.046875 11.617188 -32.046875 C 11.15625 -32.046875 10.699219 -32.097656 10.242188 -32.097656 C 9.78125 -32.097656 9.324219 -32.097656 8.8125 -32.097656 C 8.355469 -32.148438 7.898438 -32.199219 7.4375 -32.25 C 6.980469 -32.25 6.519531 -32.199219 6.0625 -32.199219 C 5.605469 -32.199219 5.144531 -32.25 4.636719 -32.25 C 4.175781 -32.25 3.71875 -32.25 3.261719 -32.25 C 2.800781 -32.300781 2.242188 -32.25 1.9375 -31.996094 C 1.628906 -31.6875 1.375 -31.332031 1.273438 -30.976562 C 1.121094 -30.515625 1.222656 -30.058594 1.222656 -29.703125 C 1.273438 -29.242188 1.070312 -28.734375 1.121094 -28.277344 C 1.171875 -27.816406 1.375 -27.410156 1.835938 -27.054688 C 2.140625 -26.796875 2.546875 -26.59375 3.058594 -26.59375 C 3.464844 -26.542969 3.972656 -26.59375 4.382812 -26.542969 C 4.890625 -26.542969 5.402344 -26.542969 5.859375 -26.492188 C 6.367188 -26.441406 6.878906 -26.441406 7.285156 -26.390625 C 8.203125 -26.339844 8.304688 -26.796875 8.761719 -26.238281 C 9.222656 -25.675781 8.761719 -25.625 8.761719 -24.710938 C 8.761719 -24.25 8.710938 -23.742188 8.761719 -23.179688 C 8.761719 -22.671875 8.863281 -22.164062 8.863281 -21.652344 C 8.863281 -21.246094 8.710938 -20.785156 8.710938 -20.277344 C 8.710938 -19.820312 8.761719 -19.359375 8.761719 -18.902344 C 8.761719 -18.441406 8.710938 -17.984375 8.710938 -17.527344 C 8.710938 -17.066406 8.660156 -16.609375 8.660156 -16.148438 C 8.660156 -15.691406 8.710938 -15.183594 8.710938 -14.722656 C 8.710938 -14.265625 8.710938 -13.808594 8.710938 -13.347656 C 8.710938 -12.890625 8.761719 -12.429688 8.761719 -11.972656 C 8.761719 -11.515625 8.8125 -11.003906 8.8125 -10.546875 C 8.8125 -10.085938 8.710938 -9.628906 8.761719 -9.171875 C 8.761719 -8.710938 8.8125 -8.253906 8.8125 -7.796875 C 8.8125 -7.335938 8.863281 -6.878906 8.863281 -6.417969 C 8.863281 -5.960938 8.761719 -5.503906 8.761719 -5.042969 C 8.761719 -4.585938 8.761719 -4.125 8.8125 -3.667969 C 8.8125 -3.210938 8.863281 -2.75 8.863281 -2.292969 C 8.863281 -1.578125 8.914062 -1.121094 9.070312 -0.765625 C 9.273438 -0.152344 9.628906 0.101562 10.191406 0.152344 C 10.648438 0.152344 11.15625 0.101562 11.769531 0.101562 C 12.429688 0.0507812 12.890625 -0.0507812 13.246094 -0.152344 C 13.910156 -0.253906 14.113281 -0.507812 14.265625 -0.96875 C 14.417969 -1.324219 14.46875 -1.78125 14.46875 -2.394531 C 14.46875 -2.851562 14.417969 -3.363281 14.417969 -3.871094 C 14.417969 -4.332031 14.46875 -4.839844 14.417969 -5.347656 C 14.417969 -5.808594 14.367188 -6.316406 14.367188 -6.828125 C 14.367188 -7.285156 14.417969 -7.796875 14.417969 -8.253906 C 14.417969 -8.761719 14.316406 -9.273438 14.316406 -9.730469 C 14.316406 -10.242188 14.519531 -10.699219 14.519531 -11.207031 C 14.519531 -11.667969 14.519531 -12.175781 14.46875 -12.636719 C 14.46875 -13.144531 14.417969 -13.652344 14.417969 -14.113281 C 14.417969 -14.570312 14.46875 -15.03125 14.46875 -15.488281 C 14.46875 -15.945312 14.316406 -16.40625 14.316406 -16.863281 C 14.316406 -17.320312 14.265625 -17.78125 14.265625 -18.238281 C 14.265625 -18.699219 14.214844 -19.15625 14.214844 -19.613281 C 14.214844 -20.074219 14.214844 -20.53125 14.214844 -20.992188 C 14.214844 -21.449219 14.164062 -21.90625 14.164062 -22.367188 C 14.164062 -22.824219 14.265625 -23.28125 14.265625 -23.792969 C 14.265625 -24.199219 14.214844 -24.660156 14.214844 -25.167969 C 14.164062 -25.625 14.265625 -25.984375 14.214844 -26.492188 C 14.722656 -26.492188 15.132812 -26.542969 15.589844 -26.542969 Z M 15.589844 -26.542969 "/></g></g></g><g fill="#ffffff" fill-opacity="1"><g transform="translate(290.240154, 58.797353)"><g><path d="M 27.257812 -18.390625 C 27.257812 -18.800781 27.054688 -19.207031 27.054688 -19.613281 C 27.003906 -20.074219 26.953125 -20.480469 26.898438 -20.886719 C 26.847656 -21.296875 26.898438 -21.753906 26.796875 -22.164062 C 26.644531 -22.621094 26.390625 -23.027344 26.289062 -23.539062 C 26.136719 -23.996094 26.035156 -24.453125 25.882812 -24.914062 C 25.726562 -25.371094 25.625 -25.882812 25.421875 -26.289062 C 25.269531 -26.746094 25.117188 -27.207031 24.863281 -27.664062 C 24.660156 -28.070312 24.402344 -28.53125 24.097656 -28.886719 C 23.84375 -29.292969 23.539062 -29.703125 23.179688 -30.058594 C 22.824219 -30.363281 22.367188 -30.570312 21.957031 -30.875 C 21.550781 -31.128906 21.144531 -31.382812 20.683594 -31.585938 C 20.277344 -31.792969 19.769531 -31.894531 19.308594 -32.046875 C 18.851562 -32.148438 18.390625 -32.300781 17.882812 -32.402344 C 17.425781 -32.503906 16.964844 -32.554688 16.457031 -32.554688 C 15.996094 -32.605469 15.488281 -32.605469 15.03125 -32.605469 C 14.519531 -32.605469 14.0625 -32.605469 13.550781 -32.503906 C 13.09375 -32.453125 12.636719 -32.351562 12.125 -32.25 C 11.667969 -32.148438 11.15625 -32.148438 10.699219 -31.996094 C 10.242188 -31.792969 9.832031 -31.535156 9.425781 -31.28125 C 8.964844 -31.078125 8.609375 -30.824219 8.203125 -30.515625 C 7.796875 -30.261719 7.285156 -30.109375 6.929688 -29.753906 C 6.570312 -29.449219 6.316406 -29.039062 5.960938 -28.632812 C 5.707031 -28.277344 5.402344 -27.867188 5.144531 -27.460938 C 4.890625 -27.054688 4.738281 -26.542969 4.585938 -26.085938 C 4.382812 -25.675781 4.230469 -25.21875 4.074219 -24.710938 C 3.972656 -24.25 3.769531 -23.792969 3.667969 -23.332031 C 3.566406 -22.824219 3.363281 -22.367188 3.261719 -21.90625 C 3.160156 -21.398438 3.210938 -20.886719 3.160156 -20.429688 C 3.109375 -19.921875 3.058594 -19.460938 3.007812 -18.953125 C 2.953125 -18.492188 2.851562 -17.984375 2.851562 -17.527344 C 2.800781 -17.015625 2.800781 -16.558594 2.851562 -16.046875 C 2.851562 -15.539062 2.902344 -15.082031 2.953125 -14.570312 C 2.953125 -14.113281 2.953125 -13.601562 3.007812 -13.09375 C 3.058594 -12.636719 3.160156 -12.175781 3.261719 -11.667969 C 3.363281 -11.207031 3.3125 -10.699219 3.464844 -10.191406 C 3.566406 -9.78125 3.820312 -9.375 3.921875 -8.914062 C 4.074219 -8.457031 4.175781 -8 4.332031 -7.589844 C 4.484375 -7.132812 4.6875 -6.726562 4.890625 -6.316406 C 5.09375 -5.910156 5.296875 -5.503906 5.503906 -5.09375 C 5.757812 -4.6875 6.0625 -4.332031 6.316406 -3.921875 C 6.625 -3.515625 6.878906 -3.160156 7.234375 -2.800781 C 7.589844 -2.445312 7.949219 -2.089844 8.304688 -1.78125 C 8.660156 -1.476562 9.121094 -1.222656 9.527344 -0.96875 C 9.933594 -0.714844 10.394531 -0.457031 10.800781 -0.253906 C 11.257812 -0.0507812 11.769531 0.0507812 12.226562 0.152344 C 12.6875 0.304688 13.195312 0.355469 13.652344 0.457031 C 14.164062 0.507812 14.621094 0.507812 15.132812 0.507812 C 15.589844 0.507812 16.097656 0.507812 16.558594 0.40625 C 17.066406 0.355469 17.527344 0.253906 17.984375 0.101562 C 18.441406 -0.0507812 18.902344 -0.203125 19.359375 -0.40625 C 19.820312 -0.613281 20.226562 -0.867188 20.632812 -1.121094 C 21.042969 -1.425781 21.449219 -1.628906 21.855469 -1.988281 C 22.214844 -2.292969 22.621094 -2.546875 22.976562 -2.902344 C 23.28125 -3.261719 23.539062 -3.71875 23.792969 -4.125 C 24.046875 -4.535156 24.300781 -4.890625 24.558594 -5.296875 C 24.761719 -5.65625 25.015625 -6.0625 25.21875 -6.46875 C 25.421875 -6.878906 25.574219 -7.285156 25.78125 -7.742188 C 25.933594 -8.152344 26.035156 -8.609375 26.1875 -9.019531 C 26.339844 -9.476562 26.542969 -9.882812 26.644531 -10.292969 C 26.746094 -10.75 26.898438 -11.207031 27.003906 -11.667969 C 27.054688 -12.074219 27.105469 -12.53125 27.15625 -12.992188 C 27.207031 -13.449219 27.257812 -13.910156 27.308594 -14.367188 C 27.308594 -14.824219 27.308594 -15.285156 27.308594 -15.742188 C 27.308594 -16.203125 27.308594 -16.660156 27.308594 -17.117188 C 27.257812 -17.527344 27.308594 -17.933594 27.257812 -18.390625 Z M 8.152344 -17.21875 C 8.203125 -17.679688 8.152344 -18.085938 8.203125 -18.542969 C 8.253906 -18.953125 8.253906 -19.410156 8.304688 -19.820312 C 8.355469 -20.277344 8.457031 -20.683594 8.558594 -21.09375 C 8.609375 -21.550781 8.761719 -21.957031 8.863281 -22.367188 C 8.964844 -22.824219 9.019531 -23.332031 9.222656 -23.742188 C 9.476562 -24.148438 9.730469 -24.558594 9.984375 -24.914062 C 10.292969 -25.320312 10.699219 -25.625 11.054688 -25.933594 C 11.414062 -26.1875 11.820312 -26.492188 12.226562 -26.695312 C 12.636719 -26.898438 13.09375 -27.15625 13.550781 -27.257812 C 14.011719 -27.410156 14.519531 -27.410156 14.980469 -27.410156 C 15.4375 -27.410156 15.894531 -27.410156 16.355469 -27.257812 C 16.761719 -27.15625 17.167969 -26.898438 17.578125 -26.644531 C 17.984375 -26.441406 18.390625 -26.289062 18.75 -25.984375 C 19.105469 -25.675781 19.359375 -25.269531 19.664062 -24.914062 C 19.921875 -24.558594 20.175781 -24.199219 20.429688 -23.742188 C 20.632812 -23.386719 20.785156 -22.925781 20.9375 -22.46875 C 21.09375 -22.007812 21.246094 -21.550781 21.347656 -21.09375 C 21.449219 -20.632812 21.550781 -20.175781 21.652344 -19.714844 C 21.703125 -19.207031 21.753906 -18.75 21.804688 -18.289062 C 21.855469 -17.78125 21.957031 -17.320312 22.007812 -16.863281 C 22.007812 -16.355469 21.957031 -15.894531 21.957031 -15.4375 C 21.957031 -14.925781 21.957031 -14.46875 21.90625 -13.960938 C 21.855469 -13.5 21.753906 -13.042969 21.652344 -12.53125 C 21.550781 -12.074219 21.449219 -11.617188 21.347656 -11.15625 C 21.195312 -10.699219 21.042969 -10.242188 20.835938 -9.78125 C 20.683594 -9.324219 20.480469 -8.914062 20.277344 -8.558594 C 20.074219 -8.152344 19.820312 -7.742188 19.5625 -7.4375 C 19.257812 -7.082031 18.953125 -6.726562 18.597656 -6.46875 C 18.238281 -6.164062 17.832031 -6.011719 17.425781 -5.808594 C 17.015625 -5.605469 16.558594 -5.605469 16.097656 -5.554688 C 15.691406 -5.453125 15.234375 -5.347656 14.773438 -5.402344 C 14.316406 -5.453125 13.859375 -5.503906 13.449219 -5.65625 C 12.992188 -5.757812 12.53125 -5.960938 12.175781 -6.164062 C 11.769531 -6.367188 11.414062 -6.675781 11.105469 -6.980469 C 10.75 -7.285156 10.445312 -7.640625 10.191406 -8.050781 C 9.933594 -8.40625 9.78125 -8.863281 9.628906 -9.273438 C 9.425781 -9.679688 9.324219 -10.136719 9.171875 -10.597656 C 9.019531 -11.003906 8.863281 -11.464844 8.761719 -11.871094 C 8.660156 -12.328125 8.609375 -12.789062 8.507812 -13.246094 C 8.457031 -13.703125 8.304688 -14.164062 8.253906 -14.570312 C 8.152344 -15.03125 8.101562 -15.488281 8 -15.945312 C 8.050781 -16.355469 8.101562 -16.8125 8.152344 -17.21875 Z M 8.152344 -17.21875 "/></g></g></g><g fill="#ffffff" fill-opacity="1"><g transform="translate(320.448411, 58.797353)"><g><path d="M 10.953125 -12.585938 C 11.464844 -12.6875 11.921875 -12.941406 12.328125 -12.992188 C 12.890625 -13.042969 13.398438 -12.992188 13.808594 -12.941406 C 14.367188 -12.941406 14.773438 -12.839844 15.183594 -12.585938 C 15.539062 -12.378906 15.894531 -12.074219 16.203125 -11.617188 C 16.40625 -11.257812 16.609375 -10.800781 16.863281 -10.292969 C 17.015625 -9.882812 17.167969 -9.425781 17.425781 -8.964844 C 17.578125 -8.558594 17.882812 -8.152344 18.085938 -7.691406 C 18.289062 -7.234375 18.390625 -6.777344 18.597656 -6.316406 C 18.800781 -5.859375 19.003906 -5.453125 19.207031 -4.992188 C 19.410156 -4.535156 19.714844 -4.175781 19.921875 -3.71875 C 20.125 -3.3125 20.378906 -2.851562 20.53125 -2.445312 C 20.785156 -1.9375 20.886719 -1.476562 21.09375 -1.121094 C 21.398438 -0.613281 21.804688 -0.40625 22.109375 -0.203125 C 22.519531 0 22.875 0 23.4375 0 C 23.84375 -0.0507812 24.300781 -0.0507812 24.863281 -0.0507812 C 25.371094 -0.0507812 25.832031 0 26.136719 -0.0507812 C 26.695312 -0.152344 26.953125 -0.355469 26.898438 -0.867188 C 26.847656 -1.171875 26.796875 -1.628906 26.59375 -2.140625 C 26.492188 -2.496094 26.1875 -2.851562 25.984375 -3.3125 C 25.832031 -3.71875 25.675781 -4.125 25.472656 -4.585938 C 25.320312 -4.992188 25.015625 -5.402344 24.8125 -5.859375 C 24.660156 -6.265625 24.453125 -6.675781 24.300781 -7.132812 C 24.097656 -7.539062 23.894531 -7.949219 23.691406 -8.355469 C 23.488281 -8.8125 23.332031 -9.222656 23.128906 -9.628906 C 22.925781 -10.085938 22.773438 -10.496094 22.570312 -10.902344 C 22.367188 -11.359375 22.164062 -11.769531 22.007812 -12.175781 C 21.804688 -12.585938 21.703125 -13.09375 21.550781 -13.5 C 21.398438 -13.808594 21.398438 -14.214844 21.703125 -14.46875 C 22.164062 -14.875 22.570312 -15.285156 22.925781 -15.589844 C 23.386719 -15.996094 23.894531 -16.253906 24.300781 -16.660156 C 24.609375 -17.015625 24.8125 -17.425781 25.066406 -17.78125 C 25.320312 -18.136719 25.574219 -18.542969 25.78125 -18.953125 C 25.933594 -19.359375 26.035156 -19.820312 26.1875 -20.226562 C 26.289062 -20.683594 26.390625 -21.09375 26.441406 -21.550781 C 26.492188 -21.957031 26.59375 -22.417969 26.59375 -22.875 C 26.59375 -23.332031 26.644531 -23.792969 26.59375 -24.25 C 26.542969 -24.660156 26.339844 -25.117188 26.1875 -25.523438 C 26.085938 -25.984375 25.882812 -26.390625 25.726562 -26.796875 C 25.523438 -27.207031 25.371094 -27.613281 25.117188 -27.96875 C 24.863281 -28.328125 24.609375 -28.683594 24.300781 -29.039062 C 23.996094 -29.347656 23.640625 -29.652344 23.28125 -29.90625 C 22.925781 -30.210938 22.621094 -30.464844 22.214844 -30.722656 C 21.804688 -30.925781 21.398438 -31.078125 20.992188 -31.230469 C 20.582031 -31.382812 20.175781 -31.636719 19.714844 -31.6875 C 19.207031 -31.792969 18.75 -31.742188 18.238281 -31.84375 C 17.78125 -31.894531 17.320312 -31.996094 16.8125 -32.046875 C 16.355469 -32.097656 15.84375 -32.097656 15.386719 -32.148438 C 14.875 -32.148438 14.417969 -32.199219 13.910156 -32.25 C 13.449219 -32.25 12.941406 -32.199219 12.480469 -32.25 C 12.023438 -32.25 11.515625 -32.25 11.054688 -32.25 C 10.546875 -32.25 10.085938 -32.300781 9.578125 -32.300781 C 9.121094 -32.25 8.609375 -32.199219 8.152344 -32.199219 C 7.589844 -32.199219 7.082031 -32.25 6.625 -32.25 C 6.011719 -32.25 5.554688 -32.148438 5.144531 -31.996094 C 4.6875 -31.792969 4.433594 -31.484375 4.28125 -30.875 C 4.230469 -30.464844 4.175781 -29.957031 4.175781 -29.347656 C 4.125 -28.886719 4.125 -28.429688 4.125 -27.96875 C 4.125 -27.5625 4.125 -27.105469 4.125 -26.644531 C 4.125 -26.1875 4.125 -25.726562 4.125 -25.269531 C 4.125 -24.8125 4.125 -24.351562 4.125 -23.894531 C 4.125 -23.4375 4.074219 -22.976562 4.023438 -22.519531 C 4.023438 -22.058594 3.921875 -21.601562 3.921875 -21.144531 C 3.921875 -20.683594 4.023438 -20.226562 4.023438 -19.769531 C 4.023438 -19.308594 3.972656 -18.851562 3.972656 -18.390625 C 3.972656 -17.933594 3.972656 -17.476562 3.972656 -17.015625 C 3.972656 -16.558594 3.972656 -16.097656 3.972656 -15.640625 C 3.972656 -15.183594 4.023438 -14.722656 4.023438 -14.265625 C 4.023438 -13.808594 3.921875 -13.398438 3.921875 -12.941406 C 3.921875 -12.480469 3.921875 -12.023438 3.921875 -11.566406 C 3.921875 -11.105469 3.972656 -10.648438 3.972656 -10.191406 C 3.972656 -9.730469 3.921875 -9.273438 3.921875 -8.863281 C 3.972656 -8.40625 3.972656 -7.949219 3.972656 -7.488281 C 3.972656 -7.03125 3.972656 -6.570312 3.972656 -6.113281 C 3.972656 -5.65625 4.074219 -5.195312 4.074219 -4.738281 C 4.074219 -4.332031 3.972656 -3.871094 3.921875 -3.363281 C 3.871094 -2.851562 3.921875 -2.394531 3.921875 -1.9375 C 3.972656 -1.375 3.921875 -0.867188 4.125 -0.507812 C 4.28125 -0.152344 4.890625 -0.101562 5.453125 0 C 6.011719 0.101562 6.625 0.101562 6.929688 0.0507812 C 7.335938 -0.0507812 7.796875 0 8.203125 -0.0507812 C 8.710938 -0.152344 9.171875 -0.253906 9.324219 -0.664062 C 9.476562 -1.070312 9.527344 -1.628906 9.527344 -2.191406 C 9.578125 -2.699219 9.578125 -3.261719 9.578125 -3.769531 C 9.527344 -4.382812 9.527344 -4.890625 9.527344 -5.347656 C 9.527344 -5.808594 9.527344 -6.316406 9.527344 -6.777344 C 9.527344 -7.234375 9.527344 -7.742188 9.527344 -8.203125 C 9.527344 -8.660156 9.425781 -9.171875 9.425781 -9.628906 C 9.425781 -10.085938 9.578125 -10.597656 9.578125 -11.054688 C 9.578125 -11.515625 9.425781 -12.023438 9.425781 -12.480469 C 9.984375 -12.585938 10.496094 -12.53125 10.953125 -12.585938 Z M 9.679688 -19.664062 C 9.679688 -20.175781 9.730469 -20.632812 9.730469 -21.09375 C 9.730469 -21.601562 9.730469 -22.058594 9.730469 -22.519531 C 9.730469 -22.976562 9.679688 -23.488281 9.679688 -23.945312 C 9.679688 -24.402344 9.730469 -24.914062 9.730469 -25.371094 C 9.730469 -25.832031 9.730469 -26.238281 9.730469 -26.746094 C 10.242188 -26.746094 10.648438 -26.796875 11.105469 -26.796875 C 11.566406 -26.796875 12.023438 -26.796875 12.480469 -26.796875 C 12.992188 -26.796875 13.449219 -26.847656 13.910156 -26.847656 C 14.367188 -26.847656 14.824219 -26.847656 15.285156 -26.847656 C 15.742188 -26.796875 16.253906 -26.847656 16.710938 -26.847656 C 17.167969 -26.796875 17.578125 -26.695312 17.933594 -26.542969 C 18.390625 -26.441406 18.851562 -26.390625 19.207031 -26.1875 C 19.5625 -25.984375 19.871094 -25.625 20.175781 -25.371094 C 20.480469 -25.066406 20.835938 -24.761719 20.992188 -24.402344 C 21.195312 -23.996094 21.296875 -23.539062 21.296875 -23.128906 C 21.347656 -22.621094 21.195312 -22.164062 21.042969 -21.652344 C 20.886719 -21.195312 20.53125 -20.835938 20.226562 -20.429688 C 19.921875 -20.074219 19.613281 -19.664062 19.207031 -19.359375 C 18.851562 -19.105469 18.390625 -18.851562 17.933594 -18.699219 C 17.476562 -18.492188 17.015625 -18.390625 16.507812 -18.339844 C 16.097656 -18.339844 15.640625 -18.238281 15.183594 -18.238281 C 14.722656 -18.238281 14.265625 -18.238281 13.808594 -18.238281 C 13.347656 -18.238281 12.890625 -18.136719 12.429688 -18.136719 C 11.972656 -18.136719 11.515625 -18.289062 11.054688 -18.289062 C 10.597656 -18.339844 10.136719 -18.1875 9.628906 -18.1875 C 9.628906 -18.699219 9.730469 -19.207031 9.679688 -19.664062 Z M 9.679688 -19.664062 "/></g></g></g><g fill="#ffffff" fill-opacity="1"><g transform="translate(350.045372, 58.797353)"><g><path d="M 12.429688 -23.230469 C 12.226562 -23.640625 12.074219 -24.097656 11.871094 -24.453125 C 11.566406 -24.964844 11.207031 -25.269531 11.003906 -25.523438 C 10.699219 -25.832031 10.394531 -26.1875 10.136719 -26.542969 C 9.832031 -26.898438 9.679688 -27.308594 9.476562 -27.714844 C 9.222656 -28.070312 8.964844 -28.429688 8.8125 -28.835938 C 8.609375 -29.347656 8.40625 -29.753906 8.253906 -30.109375 C 8 -30.570312 7.847656 -30.976562 7.640625 -31.230469 C 7.285156 -31.6875 6.980469 -31.945312 6.570312 -32.046875 C 6.214844 -32.199219 5.757812 -32.148438 5.246094 -32.148438 C 4.839844 -32.148438 4.433594 -32.300781 3.921875 -32.300781 C 3.414062 -32.300781 3.007812 -32.199219 2.597656 -32.199219 C 2.039062 -32.199219 1.527344 -32.148438 1.273438 -31.996094 C 0.96875 -31.742188 0.867188 -31.332031 1.019531 -30.671875 C 1.121094 -30.414062 1.476562 -29.957031 1.835938 -29.398438 C 2.039062 -28.988281 2.34375 -28.53125 2.648438 -28.121094 C 2.902344 -27.664062 3.210938 -27.207031 3.464844 -26.847656 C 3.820312 -26.289062 4.230469 -25.882812 4.382812 -25.625 C 4.636719 -25.320312 4.789062 -24.914062 5.042969 -24.503906 C 5.296875 -24.199219 5.554688 -23.84375 5.808594 -23.4375 C 6.011719 -23.078125 6.214844 -22.671875 6.46875 -22.316406 C 6.675781 -21.957031 6.929688 -21.601562 7.183594 -21.246094 C 7.4375 -20.835938 7.640625 -20.480469 7.898438 -20.125 C 8.152344 -19.769531 8.40625 -19.410156 8.660156 -19.054688 C 8.914062 -18.699219 9.070312 -18.289062 9.324219 -17.933594 C 9.527344 -17.679688 9.882812 -17.375 10.085938 -16.964844 C 10.242188 -16.660156 10.394531 -16.253906 10.546875 -15.894531 C 10.75 -15.4375 10.902344 -14.980469 10.902344 -14.722656 C 10.902344 -14.0625 10.800781 -13.652344 10.800781 -13.296875 C 10.800781 -12.789062 10.902344 -12.429688 10.851562 -11.921875 C 10.851562 -11.515625 10.851562 -11.105469 10.851562 -10.445312 C 10.800781 -9.984375 10.699219 -9.527344 10.699219 -9.019531 C 10.648438 -8.507812 10.699219 -8 10.648438 -7.539062 C 10.648438 -7.03125 10.597656 -6.519531 10.546875 -6.011719 C 10.546875 -5.554688 10.445312 -5.042969 10.394531 -4.535156 C 10.394531 -4.074219 10.445312 -3.566406 10.445312 -3.058594 C 10.445312 -2.546875 10.496094 -2.089844 10.546875 -1.628906 C 10.546875 -1.070312 10.648438 -0.714844 10.902344 -0.457031 C 11.15625 -0.203125 11.566406 -0.0507812 12.023438 0 C 12.378906 0.0507812 12.839844 0.0507812 13.296875 0.0507812 C 13.753906 0.0507812 14.265625 -0.0507812 14.773438 -0.152344 C 15.285156 -0.203125 15.792969 -0.253906 16.148438 -0.507812 C 16.609375 -0.765625 16.914062 -1.171875 16.914062 -1.730469 C 16.863281 -2.191406 16.8125 -2.597656 16.761719 -3.007812 C 16.761719 -3.363281 16.761719 -3.769531 16.761719 -4.28125 C 16.761719 -4.636719 16.660156 -5.042969 16.660156 -5.554688 C 16.660156 -5.960938 16.761719 -6.367188 16.761719 -6.828125 C 16.8125 -7.234375 16.761719 -7.640625 16.761719 -8.152344 C 16.8125 -8.609375 16.863281 -9.121094 16.863281 -9.679688 C 16.8125 -10.191406 16.761719 -10.699219 16.710938 -11.207031 C 16.660156 -11.769531 16.609375 -12.277344 16.558594 -12.738281 C 16.507812 -13.347656 16.507812 -13.910156 16.507812 -14.265625 C 16.507812 -14.722656 16.609375 -15.183594 16.8125 -15.691406 C 17.015625 -16.148438 17.167969 -16.609375 17.425781 -17.117188 C 17.679688 -17.527344 17.933594 -17.933594 18.238281 -18.390625 C 18.542969 -18.800781 18.851562 -19.15625 19.207031 -19.5625 C 19.460938 -19.972656 19.871094 -20.328125 20.175781 -20.734375 C 20.378906 -20.9375 20.632812 -21.398438 21.042969 -21.90625 C 21.296875 -22.265625 21.550781 -22.671875 21.855469 -23.078125 C 22.164062 -23.4375 22.316406 -23.894531 22.621094 -24.300781 C 22.875 -24.710938 23.230469 -25.066406 23.539062 -25.472656 C 23.792969 -25.882812 24.097656 -26.238281 24.351562 -26.644531 C 24.660156 -27.054688 24.914062 -27.460938 25.167969 -27.816406 C 25.472656 -28.277344 25.625 -28.734375 25.832031 -29.089844 C 26.238281 -29.652344 26.492188 -30.058594 26.644531 -30.3125 C 27.105469 -30.976562 27.308594 -31.382812 27.15625 -31.636719 C 27.003906 -31.945312 26.542969 -32.148438 25.78125 -32.199219 C 25.371094 -32.25 24.863281 -32.148438 24.25 -32.148438 C 23.691406 -32.148438 23.230469 -32.351562 22.875 -32.351562 C 22.265625 -32.351562 21.90625 -32.199219 21.550781 -31.894531 C 21.296875 -31.6875 21.042969 -31.332031 20.632812 -30.824219 C 20.429688 -30.515625 20.023438 -30.210938 19.714844 -29.753906 C 19.460938 -29.449219 19.257812 -29.039062 19.003906 -28.632812 C 18.800781 -28.277344 18.648438 -27.867188 18.390625 -27.511719 C 18.1875 -27.15625 17.984375 -26.746094 17.78125 -26.339844 C 17.578125 -25.984375 17.269531 -25.675781 17.066406 -25.269531 C 16.863281 -24.914062 16.609375 -24.558594 16.40625 -24.148438 C 16.148438 -23.792969 16.046875 -23.332031 15.792969 -22.976562 C 15.539062 -22.621094 15.285156 -22.316406 15.03125 -21.957031 C 14.773438 -21.601562 14.417969 -21.5 14.0625 -21.550781 C 13.652344 -21.550781 13.296875 -21.652344 13.09375 -22.007812 C 12.839844 -22.417969 12.636719 -22.824219 12.429688 -23.230469 Z M 12.429688 -23.230469 "/></g></g></g></svg>